<?xml version="1.0" encoding="UTF-8"?>
<svg id="Layer_2" data-name="Layer 2" xmlns="http://www.w3.org/2000/svg" xmlns:xlink="http://www.w3.org/1999/xlink" viewBox="0 0 607.61 463.24">
  <defs>
    <style>
      .cls-1 {
        fill: #2e4b93;
      }

      .cls-2, .cls-3, .cls-4, .cls-5, .cls-6, .cls-7, .cls-8, .cls-9, .cls-10, .cls-11, .cls-12, .cls-13, .cls-14, .cls-15, .cls-16, .cls-17, .cls-18, .cls-19 {
        stroke-miterlimit: 10;
      }

      .cls-2, .cls-5, .cls-12, .cls-14, .cls-19 {
        stroke: #62a85b;
      }

      .cls-3 {
        fill: url(#linear-gradient);
      }

      .cls-3, .cls-6, .cls-7, .cls-9, .cls-13, .cls-15, .cls-18 {
        stroke: #d88de0;
      }

      .cls-4, .cls-6, .cls-15, .cls-16, .cls-17, .cls-19 {
        fill: none;
      }

      .cls-4, .cls-8, .cls-10, .cls-11, .cls-16, .cls-17 {
        stroke: #6680d3;
      }

      .cls-5 {
        fill: url(#linear-gradient-4);
      }

      .cls-6 {
        stroke-dasharray: 4;
      }

      .cls-7 {
        fill: #97549b;
      }

      .cls-10 {
        fill: url(#linear-gradient-3);
      }

      .cls-11 {
        fill: #1a3875;
      }

      .cls-12 {
        fill: #2b5b27;
      }

      .cls-13 {
        fill: #723777;
      }

      .cls-14 {
        fill: #62a85b;
      }

      .cls-20 {
        fill: #165e0e;
      }

      .cls-16 {
        stroke-dasharray: 4 4;
      }

      .cls-17 {
        stroke-dasharray: 4.04 4.04;
      }

      .cls-18 {
        fill: url(#linear-gradient-2);
      }
    </style>
    <linearGradient id="linear-gradient" x1="212.33" y1="179.76" x2="287.62" y2="301.93" gradientTransform="translate(264.64 -109.62) rotate(45)" gradientUnits="userSpaceOnUse">
      <stop offset="0" stop-color="#d88de0"/>
      <stop offset=".76" stop-color="#000008"/>
    </linearGradient>
    <linearGradient id="linear-gradient-2" x1="7.9" y1="70.13" x2="132.35" y2="70.13" gradientUnits="userSpaceOnUse">
      <stop offset=".09" stop-color="#d8ffe0"/>
      <stop offset=".36" stop-color="#d88de0"/>
      <stop offset=".83" stop-color="#000008"/>
    </linearGradient>
    <linearGradient id="linear-gradient-3" x1="384.12" y1="298.9" x2="543.49" y2="298.9" gradientUnits="userSpaceOnUse">
      <stop offset="0" stop-color="#ffffac"/>
      <stop offset=".35" stop-color="#6277ff"/>
      <stop offset=".76" stop-color="#000008"/>
    </linearGradient>
    <linearGradient id="linear-gradient-4" x1="290.52" y1="329.03" x2="332.65" y2="329.03" gradientUnits="userSpaceOnUse">
      <stop offset="0" stop-color="#62a85b"/>
      <stop offset=".54" stop-color="#002a08"/>
    </linearGradient>
  </defs>
  <g id="Layer_1-2" data-name="Layer 1">
    <g>
      <g>
        <path class="cls-9" d="M136.32,29.59h0c-.09-.09-.17-.18-.26-.27-16.04-16.04-52.94-5.15-82.41,24.32-29.47,29.47-40.36,66.38-24.33,82.41.09.09.18.17.27.26h0s182.67,182.67,182.67,182.67l106.74-106.74L146.78,40.05h0s-.42-.42-.42-.42c.02.02.04.04.07.07l-10.11-10.11Z"/>
        <ellipse class="cls-15" cx="144.36" cy="144.36" rx="75.47" ry="41.07" transform="translate(-59.8 144.36) rotate(-45)"/>
        <ellipse class="cls-13" cx="271.43" cy="271.43" rx="72.34" ry="39.37" transform="translate(-112.43 271.43) rotate(-45)"/>
        <ellipse class="cls-3" cx="264.64" cy="264.64" rx="75.47" ry="41.07" transform="translate(-109.62 264.64) rotate(-45)"/>
        <polygon class="cls-6" points="73.29 20.54 72.96 122.84 265.33 315.21 265.66 212.91 73.29 20.54"/>
        <line class="cls-9" x1="265.62" y1="265.62" x2="67.21" y2="67.21"/>
        <g>
          <path class="cls-9" d="M118.96,13.9c1.29,2.57,2.17,5.41,2.65,8.5,2.89,18.57-8.78,45.41-31.29,67.92-22.51,22.51-49.35,34.19-67.93,31.29-3.08-.48-5.93-1.36-8.5-2.65-1.19-2.36-2.03-4.97-2.53-7.78-3.31-18.59,8.37-45.84,31.17-68.65,22.81-22.81,50.05-34.48,68.64-31.17,2.8.5,5.41,1.34,7.78,2.53Z"/>
          <path class="cls-18" d="M114.64,7.9l10.31,10.31c.14.14.28.28.42.42,15.43,16.26,4.48,52.77-24.74,81.99-29.22,29.22-65.73,40.18-81.99,24.74-.14-.14-.28-.28-.42-.42l-10.31-10.31c1.76,1.76,3.77,3.19,5.99,4.32,2.57,1.29,5.41,2.17,8.5,2.65,18.57,2.89,45.41-8.78,67.93-31.29,22.51-22.51,34.18-49.35,31.29-67.92-.48-3.08-1.36-5.93-2.65-8.5-1.12-2.23-2.56-4.23-4.32-5.99Z"/>
          <path class="cls-9" d="M114.64,7.9c1.76,1.76,3.19,3.77,4.32,5.99,1.29,2.57,2.17,5.41,2.65,8.5L22.39,121.61c-3.08-.48-5.93-1.36-8.5-2.65-2.23-1.12-4.23-2.56-5.99-4.32L114.64,7.9Z"/>
          <path class="cls-9" d="M125.36,18.63c-.14-.14-.28-.28-.42-.42l.42.42h0Z"/>
          <path class="cls-9" d="M114.64,7.9c1.76,1.76,3.19,3.77,4.32,5.99,1.29,2.57,2.17,5.41,2.65,8.5,2.89,18.57-8.78,45.41-31.29,67.92-22.51,22.51-49.35,34.19-67.93,31.29-3.08-.48-5.93-1.36-8.5-2.65-2.23-1.12-4.23-2.56-5.99-4.32-16.04-16.04-5.15-52.94,24.33-82.41C61.7,2.75,98.6-8.14,114.64,7.9Z"/>
        </g>
        <path class="cls-9" d="M87.84,87.84c-13.95,13.95-29.96,24.09-45.1,28.56-14.46,4.27-26.22,2.82-33.11-4.07-6.89-6.89-8.34-18.65-4.07-33.11,4.47-15.14,14.61-31.16,28.56-45.1s29.96-24.09,45.1-28.56c14.46-4.27,26.22-2.82,33.11,4.07,6.89,6.89,8.33,18.65,4.07,33.11-4.47,15.14-14.61,31.16-28.56,45.1Z"/>
        <path class="cls-9" d="M19.72,117.6c-13.66-13.66-2.82-46.64,24.21-73.67,27.03-27.03,60.01-37.87,73.67-24.21"/>
        <path class="cls-9" d="M32.75,94.55l38.06-9.52c3.71-.93,10.44-3.75,16.55-6.49,9.24-4.14,16.53-11.72,20.15-21.18.22-.57,2.63-8.36,2.63-8.36,2.28-7.44,1.48-15.49-2.23-22.34h0c-1.68-3.11-4.74-5.24-8.25-5.74h0c-6.78-.96-13.66.79-19.14,4.88l-49.09,39c-4.38,3.48-7.6,8.2-9.25,13.54l-.35,1.14s-1.52,7.57-1.51,7.88c.24,4.95,4.87,8.51,9.75,7.68,1.22-.21,2.24-.39,2.68-.5Z"/>
        <path class="cls-13" d="M68.25,72.95c-3.76-4.49-1.56-12.28-.94-18.38.92-6.54,1.54-12.83,5.16-18.21,4.68-6.99,15.73-14.25,24.26-13.52,16.31,1.51,14.37,21.7,8.53,32.52-4.76,9.17-13.21,17.18-23.56,19.27-4.29.76-10.21,1.52-13.4-1.64l-.04-.05Z"/>
        <path class="cls-7" d="M25.72,72.5l3.42,1.43c2.29.96,4.8,1.29,7.26.97l30.47-3.99c3.31-.43,6.48-1.6,9.28-3.43l5.98-3.9c1.61-1.05,2.74-2.69,3.14-4.57l1.42-6.71c.33-1.57.41-4.54-.86-5.52l-4.72-1.78c-1.76-1.36-3.9-2.14-6.11-2.23l-37.18-1.58c-2.4-.1-4.78.52-6.83,1.78l-3.43,2.11c-2,1.23-3.67,2.93-4.85,4.96l-1.36,2.33c-2.01,3.43-2.69,7.48-1.92,11.37l.28,1.4c.66,3.3,2.92,6.07,6.03,7.36Z"/>
        <path class="cls-9" d="M25.38,69.48l3.42,1.43c2.29.96,4.8,1.29,7.26.97l30.47-3.99c3.31-.43,6.48-1.6,9.28-3.43l5.98-3.9c1.61-1.05,2.74-2.69,3.14-4.57l1.42-6.71c.33-1.57-.26-3.19-1.53-4.17l-4.05-3.12c-1.76-1.36-3.9-2.14-6.11-2.23l-37.18-1.58c-2.4-.1-4.78.52-6.83,1.78l-3.43,2.11c-2,1.23-3.67,2.93-4.85,4.96l-1.36,2.33c-2.01,3.43-2.69,7.48-1.92,11.37l.28,1.4c.66,3.3,2.92,6.07,6.03,7.36Z"/>
        <path class="cls-9" d="M43.48,59.13l1.97-8.96c.43-1.95-.27-3.97-1.8-5.24h0c-.97-.81-2.2-1.25-3.46-1.23l-5.32.05c-1.1.01-2.17.36-3.06,1l-1.27.91c-1.7,1.22-2.91,3.01-3.43,5.04l-1.02,3.99c-.61,2.41-.24,4.97,1.04,7.1h0c.84,1.4,2.27,2.33,3.88,2.54l4.04.53c1.23.16,2.49-.11,3.54-.78l2.52-1.6c1.2-.76,2.05-1.97,2.36-3.36Z"/>
      </g>
      <g>
        <path class="cls-8" d="M461.23,221.33c-2.79-1.09-5.54-2.22-8.23-3.39,1.73.58,3.5,1.26,5.28,2.03.99.42,1.98.87,2.95,1.36Z"/>
        <g>
          <path class="cls-1" d="M505.85,329.33c-.91,13.3-6.43,23.64-14.76,28.58-3.5,2.07-7.5,3.21-11.88,3.21s-8.64-1-13.24-3c-28.64-12.33-53.77-54.02-53.77-89.19,0-16.44,6.01-34.01,22.8-34.53.26-.02.52-.02.78-.02,4.54,0,9.53,1.15,14.81,3.43,3.69,1.59,7.34,3.63,10.87,6.04,6.53,4.44,12.72,10.16,18.29,16.7-5.64-5.31-11.83-9.69-18.26-12.67-.87-.41-1.73-.78-2.61-1.13-4.63-1.86-8.99-2.8-12.96-2.8-9.56,0-15.25,5.74-18.15,13.37-1.72,4.5-2.46,9.67-2.46,14.71,0,24.4,16.01,52.67,36.26,66.65v.02c3.48,2.4,7.08,4.37,10.76,5.85,4.02,1.62,7.91,2.43,11.57,2.43,10.47,0,18.55-6.9,21.81-17.74.05.02.1.05.15.08Z"/>
          <path class="cls-4" d="M505.85,329.33c-.91,13.3-6.43,23.64-14.76,28.58-3.5,2.07-7.5,3.21-11.88,3.21s-8.64-1-13.24-3c-28.64-12.33-53.77-54.02-53.77-89.19,0-16.44,6.01-34.01,22.8-34.53.26-.02.52-.02.78-.02,4.54,0,9.53,1.15,14.81,3.43,3.69,1.59,7.34,3.63,10.87,6.04,6.53,4.44,12.72,10.16,18.29,16.7-5.64-5.31-11.83-9.69-18.26-12.67-.87-.41-1.73-.78-2.61-1.13-4.63-1.86-8.99-2.8-12.96-2.8-9.56,0-15.25,5.74-18.15,13.37-1.72,4.5-2.46,9.67-2.46,14.71,0,24.4,16.01,52.67,36.26,66.65v.02c3.48,2.4,7.08,4.37,10.76,5.85,4.02,1.62,7.91,2.43,11.57,2.43,10.47,0,18.55-6.9,21.81-17.74.05.02.1.05.15.08Z"/>
        </g>
        <path class="cls-8" d="M422.88,201.56l42.28-14.6h0s45.28,12.14,79.41,29.24c.04.02.04.08,0,.1l-26.34,9.29-15.13,5.33c-9.67.16-23.41-3.22-36.96-8.1-1.59-.58-3.18-1.17-4.75-1.78-.97-.49-1.96-.94-2.95-1.36-1.78-.76-3.55-1.44-5.28-2.03-1.99-.86-3.94-1.75-5.83-2.64"/>
        <path class="cls-8" d="M585.93,316.46l-41.35,14.57-.02.02c-.42.15-.89-.6-1.49-1.23-16.62-17.47-37.88-73.05-40.05-98.6h-.1l15.13-5.33,26.46-9.33c10,15.81,36.31,76.68,41.41,99.91Z"/>
        <line class="cls-8" x1="544.57" y1="331.04" x2="543.73" y2="331.33"/>
        <path class="cls-11" d="M502.43,395.82l42.82-15.26s36.37-51.58,40.61-63.88c.03-.09-.06-.17-.15-.14l-41.12,14.49-.02.02c-1.34,1.28-2.8,2.37-4.37,3.27-11,9.62-20.75,21.11-27.49,32.63"/>
        <path class="cls-11" d="M505.7,329.24c-3.26,10.84-11.34,17.74-21.81,17.74-3.66,0-7.55-.81-11.57-2.43-3.68-1.47-7.27-3.45-10.76-5.85v-.02c-20.25-13.98-36.26-42.25-36.26-66.65,0-5.04.75-10.21,2.46-14.71,2.9-7.63,8.59-13.37,18.15-13.37,3.97,0,8.33.94,12.96,2.8.87.36,1.73.73,2.61,1.13,1.05,30.59,20.41,65.37,44.21,81.35Z"/>
        <path class="cls-10" d="M511.12,366.27c-12.44,13.74-31.74,18.79-52.83,9.7-36.19-15.59-65.52-64.42-65.52-107.04,0-37.94,23.22-59.49,53.85-52.77,2.09.45,4.23,1.05,6.38,1.78-1.99-.86-3.94-1.75-5.83-2.64-8.96-4.23-16.75-8.72-21.74-12.7-2.25-1.78-5.59-.13-7.08,2.58-6.98,12.59-23.31,38.79-31.87,55.44-2.96,5.74-3.15,11.44-.46,17.31,8.64,18.96,24.25,54.45,31.4,75.4,1.9,5.59,6.19,10.04,11.68,12.17,23.14,8.94,34.14,12.09,72.23,30.33.83.39,1.83-.16,1.86-1.07.39-8.57,3.92-18.19,9.53-27.8l-1.59-.68ZM542.94,331.98c-.92.76-1.83,1.54-2.74,2.33-11,9.62-20.75,21.11-27.49,32.63l-1.59-.68c6.74-7.45,11.47-17.43,13.37-29.11.62-3.76.94-7.68.94-11.76,0-39.68-26.81-83.32-59.7-101.73.08-.18.18-.37.26-.55,13.54,4.88,27.28,8.26,36.96,8.1h.1c2.17,25.55,23.43,81.14,40.05,98.6.6.63.52,1.6-.15,2.17ZM465.65,223.66c-1.49-.84-2.98-1.62-4.49-2.33-2.79-1.09-5.54-2.22-8.23-3.39-2.15-.73-4.29-1.33-6.38-1.78-30.64-6.72-53.85,14.82-53.85,52.77,0,42.63,29.32,91.46,65.52,107.04,21.09,9.09,40.39,4.03,52.83-9.7,6.74-7.45,11.47-17.43,13.37-29.11.62-3.76.94-7.68.94-11.76,0-39.68-26.81-83.32-59.7-101.73ZM505.82,328.63c0,.23-.02.45-.03.7-.91,13.3-6.43,23.64-14.76,28.58-3.5,2.07-7.5,3.21-11.88,3.21s-8.64-1-13.24-3c-28.64-12.33-53.77-54.02-53.77-89.19,0-16.44,6.01-34.01,22.8-34.53.26-.02.52-.02.78-.02,4.54,0,9.53,1.15,14.81,3.43,3.69,1.59,7.34,3.63,10.87,6.04,6.53,4.44,12.72,10.16,18.29,16.7,15.5,18.24,26.23,42.98,26.23,64.82,0,1.1-.03,2.17-.1,3.24Z"/>
        <g>
          <polyline points="607.41 239.39 361.75 343.38 361.66 343.49"/>
          <g>
            <line class="cls-4" x1="607.41" y1="239.39" x2="605.57" y2="240.17"/>
            <line class="cls-17" x1="601.84" y1="241.74" x2="365.33" y2="341.87"/>
            <polyline class="cls-4" points="363.46 342.66 361.75 343.38 361.66 343.49"/>
          </g>
        </g>
        <g>
          <polyline points="516.53 430.23 401.13 157.62 401.01 157.52"/>
          <g>
            <line class="cls-4" x1="516.53" y1="430.23" x2="515.75" y2="428.39"/>
            <line class="cls-16" x1="514.19" y1="424.71" x2="402.63" y2="161.17"/>
            <polyline class="cls-4" points="401.85 159.32 401.13 157.62 401.01 157.52"/>
          </g>
        </g>
      </g>
      <g>
        <path class="cls-2" d="M308.56,292.27l39.01,18.15c8.73,4.06,15.84,10.94,20.19,19.53l7.98,15.76c3.11,6.14,4.69,12.94,4.62,19.82l-.21,20.79c-.1,9.51-3.35,18.72-9.26,26.18l-13.75,17.38c-2.63,3.32-5.74,6.24-9.22,8.65l-18.04,12.49c-3.74,2.59-7.86,4.57-12.22,5.86l-13.8,4.09c-5.12,1.52-10.49,2.07-15.81,1.62l-23.64-2c-10.36-.87-20.04-5.48-27.26-12.95l-10.08-10.44c-3.16-3.27-5.77-7.02-7.75-11.11l-6.3-13.01c-2.82-5.83-4.28-12.22-4.28-18.69v-48.63c0-4.54.72-9.05,2.13-13.36h0c2.84-8.68,8.39-16.23,15.82-21.55l20.41-14.59c7.28-5.2,16-8,24.95-8h18.43c6.25,0,12.43,1.37,18.09,4Z"/>
        <g>
          <path class="cls-20" d="M330.94,351.06c0,1.36,0,2.72,0,4.08-1.36,0-2.72,0-4.08,0,0-1.36,0-2.72,0-4.08,1.36,0,2.72,0,4.08,0Z"/>
          <path class="cls-20" d="M314.61,351.06c0,1.36,0,2.72,0,4.08-1.36,0-2.72,0-4.08,0,0-1.36,0-2.72,0-4.08,1.36,0,2.72,0,4.08,0Z"/>
          <path class="cls-20" d="M294.21,355.14c0,1.36,0,2.72,0,4.08-1.36,0-2.72,0-4.08,0,0-1.36,0-2.72,0-4.08,1.36,0,2.72,0,4.08,0Z"/>
          <path class="cls-20" d="M306.45,351.06c0,1.36,0,2.72,0,4.08-1.36,0-2.72,0-4.08,0,0-1.36,0-2.72,0-4.08,1.36,0,2.72,0,4.08,0Z"/>
          <path class="cls-20" d="M302.37,355.14c0,1.36,0,2.72,0,4.08-1.36,0-2.72,0-4.08,0,0-1.36,0-2.72,0-4.08,1.36,0,2.72,0,4.08,0Z"/>
          <path class="cls-20" d="M290.12,351.06c0,1.36,0,2.72,0,4.08-1.36,0-2.72,0-4.08,0,0-1.36,0-2.72,0-4.08,1.36,0,2.72,0,4.08,0Z"/>
          <path class="cls-20" d="M310.53,355.14c0,1.36,0,2.72,0,4.08-1.36,0-2.72,0-4.08,0,0-1.36,0-2.72,0-4.08,1.36,0,2.72,0,4.08,0Z"/>
          <path class="cls-20" d="M322.77,449.01c0,1.36,0,2.72,0,4.08-1.36,0-2.72,0-4.08,0,0-1.36,0-2.72,0-4.08,1.36,0,2.72,0,4.08,0Z"/>
          <path class="cls-20" d="M314.61,355.14c1.36,0,2.72,0,4.08,0,0,1.36,0,2.72,0,4.08-1.36,0-2.72,0-4.08,0,0-1.36,0-2.72,0-4.08Z"/>
          <path class="cls-20" d="M326.86,355.14c0,1.36,0,2.72,0,4.08-1.36,0-2.72,0-4.08,0,0-1.36,0-2.72,0-4.08,1.36,0,2.72,0,4.08,0Z"/>
          <path class="cls-20" d="M265.64,293.92c0-1.36,0-2.72,0-4.08h4.08v4.08c-1.36,0-2.72,0-4.08,0Z"/>
          <path class="cls-20" d="M330.94,355.14c1.36,0,2.72,0,4.08,0,0,1.36,0,2.72,0,4.08-1.36,0-2.72,0-4.08,0,0-1.36,0-2.72,0-4.08Z"/>
          <path class="cls-20" d="M339.1,359.22c0-1.36,0-2.72,0-4.08h4.08v4.08c-1.36,0-2.72,0-4.08,0,0,1.36,0,2.72,0,4.08-1.36,0-2.72,0-4.08,0,0-1.36,0-2.72,0-4.08,1.36,0,2.72,0,4.08,0Z"/>
          <path class="cls-20" d="M273.8,293.92v-4.08h4.08c0,1.36,0,2.72,0,4.08-1.36,0-2.72,0-4.08,0Z"/>
          <path class="cls-20" d="M281.96,293.92c0-1.36,0-2.72,0-4.08h4.08c0,1.36,0,2.72,0,4.08-1.36,0-2.72,0-4.08,0Z"/>
          <path class="cls-20" d="M339.1,440.85c0,1.36,0,2.72,0,4.08-1.36,0-2.72,0-4.08,0,0-1.36,0-2.72,0-4.08,1.36,0,2.72,0,4.08,0Z"/>
          <path class="cls-20" d="M290.12,293.92c0-1.36,0-2.72,0-4.08h4.08c0,1.36,0,2.72,0,4.08-1.36,0-2.72,0-4.08,0Z"/>
          <path class="cls-20" d="M330.94,440.85c0,1.36,0,2.72,0,4.08,1.36,0,2.72,0,4.08,0,0,1.36,0,2.72,0,4.08h-4.08v4.08h-4.08v-4.08c-1.36,0-2.72,0-4.08,0,0-1.36,0-2.72,0-4.08,1.36,0,2.72,0,4.08,0,0-1.36,0-2.72,0-4.08,1.36,0,2.72,0,4.08,0Z"/>
          <path class="cls-20" d="M298.29,293.92c0-1.36,0-2.72,0-4.08h4.08c0,1.36,0,2.72,0,4.08-1.36,0-2.72,0-4.08,0Z"/>
          <path class="cls-20" d="M245.23,306.17c0-2.72,0-5.44,0-8.16h8.16v-4.08h4.08v4.08c1.36,0,2.72,0,4.08,0,0,1.36,0,2.72,0,4.08-1.36,0-2.72,0-4.08,0v4.08c1.36,0,2.72,0,4.08,0,0,1.36,0,2.72,0,4.08-1.36,0-2.72,0-4.08,0v4.08h4.08c0-1.36,0-2.72,0-4.08,1.36,0,2.72,0,4.08,0,0,1.36,0,2.72,0,4.08,1.36,0,2.72,0,4.08,0,0,1.36,0,2.72,0,4.08-1.36,0-2.72,0-4.08,0v4.08c1.36,0,2.72,0,4.08,0,0,1.36,0,2.72,0,4.08-1.36,0-2.72,0-4.08,0,0,1.36,0,2.72,0,4.08-1.36,0-2.72,0-4.08,0,0-1.36,0-2.72,0-4.08-1.36,0-2.72,0-4.08,0,0-1.36,0-2.72,0-4.08,1.36,0,2.72,0,4.08,0v-4.08h-4.08c0,1.36,0,2.72,0,4.08-1.36,0-2.72,0-4.08,0,0-1.36,0-2.72,0-4.08h-4.08v4.08c1.36,0,2.72,0,4.08,0,0,1.36,0,2.72,0,4.08-1.36,0-2.72,0-4.08,0v4.08h4.08c0-1.36,0-2.72,0-4.08,1.36,0,2.72,0,4.08,0,0,1.36,0,2.72,0,4.08,1.36,0,2.72,0,4.08,0,0,1.36,0,2.72,0,4.08-1.36,0-2.72,0-4.08,0v4.08c1.36,0,2.72,0,4.08,0,0,1.36,0,2.72,0,4.08-1.36,0-2.72,0-4.08,0v4.08h4.08c0-1.36,0-2.72,0-4.08,1.36,0,2.72,0,4.08,0,0,1.36,0,2.72,0,4.08h4.08v-4.08c-1.36,0-2.72,0-4.08,0,0-1.36,0-2.72,0-4.08,1.36,0,2.72,0,4.08,0v-4.08c-1.36,0-2.72,0-4.08,0,0-1.36,0-2.72,0-4.08,1.36,0,2.72,0,4.08,0,0-1.36,0-2.72,0-4.08,1.36,0,2.72,0,4.08,0,0,1.36,0,2.72,0,4.08,1.36,0,2.72,0,4.08,0,0,1.36,0,2.72,0,4.08-1.36,0-2.72,0-4.08,0v4.08c1.36,0,2.72,0,4.08,0,0,1.36,0,2.72,0,4.08-1.36,0-2.72,0-4.08,0v4.08h4.08c0-1.36,0-2.72,0-4.08,1.36,0,2.72,0,4.08,0,0,1.36,0,2.72,0,4.08,1.36,0,2.72,0,4.08,0,0,1.36,0,2.72,0,4.08-1.36,0-2.72,0-4.08,0v4.08c1.36,0,2.72,0,4.08,0,0,1.36,0,2.72,0,4.08-1.36,0-2.72,0-4.08,0,0,1.36,0,2.72,0,4.08-1.36,0-2.72,0-4.08,0,0-1.36,0-2.72,0-4.08-1.36,0-2.72,0-4.08,0,0-1.36,0-2.72,0-4.08,1.36,0,2.72,0,4.08,0v-4.08h-4.08c0,1.36,0,2.72,0,4.08-1.36,0-2.72,0-4.08,0,0-1.36,0-2.72,0-4.08h-4.08v4.08c1.36,0,2.72,0,4.08,0,0,1.36,0,2.72,0,4.08-1.36,0-2.72,0-4.08,0v4.08h4.08c0-1.36,0-2.72,0-4.08,1.36,0,2.72,0,4.08,0,0,1.36,0,2.72,0,4.08,1.36,0,2.72,0,4.08,0,0,1.36,0,2.72,0,4.08-1.36,0-2.72,0-4.08,0v4.08c1.36,0,2.72,0,4.08,0,0,1.36,0,2.72,0,4.08-1.36,0-2.72,0-4.08,0v4.08h4.08c0-1.36,0-2.72,0-4.08,1.36,0,2.72,0,4.08,0,0,1.36,0,2.72,0,4.08,1.36,0,2.72,0,4.08,0,0,1.36,0,2.72,0,4.08-1.36,0-2.72,0-4.08,0v4.08c1.36,0,2.72,0,4.08,0,0,1.36,0,2.72,0,4.08-1.36,0-2.72,0-4.08,0v4.08h4.08c0-1.36,0-2.72,0-4.08,1.36,0,2.72,0,4.08,0,0,1.36,0,2.72,0,4.08,1.36,0,2.72,0,4.08,0,0,1.36,0,2.72,0,4.08-1.36,0-2.72,0-4.08,0v4.08c1.36,0,2.72,0,4.08,0,0,1.36,0,2.72,0,4.08-1.36,0-2.72,0-4.08,0v4.08h4.08c0-1.36,0-2.72,0-4.08,1.36,0,2.72,0,4.08,0,0,1.36,0,2.72,0,4.08,1.36,0,2.72,0,4.08,0,0,1.36,0,2.72,0,4.08-1.36,0-2.72,0-4.08,0v4.08c1.36,0,2.72,0,4.08,0,0,1.36,0,2.72,0,4.08-1.36,0-2.72,0-4.08,0v4.08h4.08c0-1.36,0-2.72,0-4.08,1.36,0,2.72,0,4.08,0,0,1.36,0,2.72,0,4.08,1.36,0,2.72,0,4.08,0,0,1.36,0,2.72,0,4.08-1.36,0-2.72,0-4.08,0v4.08c1.36,0,2.72,0,4.08,0,0,1.36,0,2.72,0,4.08-1.36,0-2.72,0-4.08,0v4.08h4.08c0-1.36,0-2.72,0-4.08,1.36,0,2.72,0,4.08,0,0,1.36,0,2.72,0,4.08,1.36,0,2.72,0,4.08,0,0,1.36,0,2.72,0,4.08-1.36,0-2.72,0-4.08,0v4.08h4.08c0,1.36,0,2.72,0,4.08-4.08,0-8.17,0-12.24,0,0-1.36,0-2.72,0-4.08,1.36,0,2.72,0,4.08,0v-4.08h-4.08c0,1.36,0,2.72,0,4.08-1.36,0-2.72,0-4.08,0,0-1.36,0-2.72,0-4.08h-4.08v4.08c1.36,0,2.72,0,4.08,0,0,1.36,0,2.72,0,4.08-1.36,0-2.72,0-4.08,0v4.08h-4.08v-4.08h-4.08v4.08h-12.24v-4.08h-4.08v4.08h-4.08v-4.08h-20.41v-4.08h4.08v-4.08h-4.08c0,1.36,0,2.72,0,4.08h-4.08v-4.08h-4.08v-4.08h-4.08v-4.08h-4.08v-4.08h-4.08v-4.08h-4.08v-4.08h-4.08v-8.16h-4.08v-8.16h-4.08v-81.63h4.08v-8.16h4.08v-4.08h4.08v4.08h4.08v-4.08h-4.08v-4.08h4.08v-4.08h4.08v4.08h4.08v-4.08h-4.08c0-1.36,0-2.72,0-4.08,4.08,0,8.17,0,12.24,0,0,1.36,0,2.72,0,4.08-1.36,0-2.72,0-4.08,0v4.08h4.08c0-1.36,0-2.72,0-4.08,1.36,0,2.72,0,4.08,0,0,1.36,0,2.72,0,4.08h4.08v-4.08c-1.36,0-2.72,0-4.08,0,0-1.36,0-2.72,0-4.08,1.36,0,2.72,0,4.08,0v-4.08h-4.08c0,1.36,0,2.72,0,4.08-1.36,0-2.72,0-4.08,0ZM237.07,318.41h-4.08v4.08h4.08v-4.08ZM245.23,318.41h-4.08v4.08h4.08v-4.08ZM228.9,326.57h-4.08v4.08h4.08v-4.08ZM237.07,326.57h-4.08v4.08h4.08v-4.08ZM245.23,326.57h-4.08v4.08h4.08v-4.08ZM228.9,334.73h-4.08v4.08h4.08v-4.08ZM237.07,334.73h-4.08v4.08h4.08v-4.08ZM245.23,334.73h-4.08v4.08h4.08v-4.08ZM253.39,334.73h-4.08v4.08h4.08v-4.08ZM237.07,342.9h-4.08v4.08h4.08v-4.08ZM253.39,342.9h-4.08v4.08h4.08v-4.08ZM220.74,351.06h-4.08v4.08h4.08v-4.08ZM237.07,351.06h-4.08v4.08h4.08v-4.08ZM245.23,351.06h-4.08v4.08h4.08v-4.08ZM253.39,351.06h-4.08v4.08h4.08v-4.08ZM261.56,351.06h-4.08v4.08h4.08v-4.08ZM228.9,359.22h-4.08v4.08h4.08v-4.08ZM245.23,359.22h-4.08v4.08h4.08v-4.08ZM253.39,359.22h-4.08v4.08h4.08v-4.08ZM261.56,359.22h-4.08v4.08h4.08v-4.08ZM228.9,367.38h-4.08v4.08h4.08v-4.08ZM245.23,367.38h-4.08v4.08h4.08v-4.08ZM253.39,367.38h-4.08v4.08h4.08v-4.08ZM261.56,367.38h-4.08v4.08h4.08v-4.08ZM269.72,367.38h-4.08v4.08h4.08v-4.08ZM253.39,375.55h-4.08v4.08h4.08v-4.08ZM269.72,375.55h-4.08v4.08h4.08v-4.08ZM237.07,383.71h-4.08v4.08h4.08v-4.08ZM253.39,383.71h-4.08v4.08h4.08v-4.08ZM261.56,383.71h-4.08v4.08h4.08v-4.08ZM269.72,387.79c0-1.36,0-2.72,0-4.08h-4.08v4.08c1.36,0,2.72,0,4.08,0,0,1.36,0,2.72,0,4.08-1.36,0-2.72,0-4.08,0v4.08h4.08c0-1.36,0-2.72,0-4.08,1.36,0,2.72,0,4.08,0,0,1.36,0,2.72,0,4.08h4.08v-4.08c-1.36,0-2.72,0-4.08,0,0-1.36,0-2.72,0-4.08,1.36,0,2.72,0,4.08,0v-4.08h-4.08c0,1.36,0,2.72,0,4.08-1.36,0-2.72,0-4.08,0ZM245.23,391.87h-4.08v4.08h4.08v-4.08ZM261.56,391.87h-4.08v4.08h4.08v-4.08ZM245.23,400.04h-4.08v4.08h4.08v-4.08ZM261.56,400.04h-4.08v4.08h4.08v-4.08ZM269.72,400.04h-4.08v4.08h4.08v-4.08ZM277.88,400.04h-4.08v4.08h4.08v-4.08ZM286.04,400.04h-4.08v4.08h4.08v-4.08ZM253.39,408.2h-4.08v4.08h4.08v-4.08ZM269.72,408.2h-4.08v4.08h4.08v-4.08ZM277.88,408.2h-4.08v4.08h4.08v-4.08ZM286.04,408.2h-4.08v4.08h4.08v-4.08ZM237.07,416.36h-4.08v4.08h4.08v-4.08ZM253.39,416.36h-4.08v4.08h4.08v-4.08ZM261.56,416.36h-4.08v4.08h4.08v-4.08ZM269.72,416.36h-4.08v4.08h4.08v-4.08ZM277.88,416.36h-4.08v4.08h4.08v-4.08ZM286.04,420.44c0-1.36,0-2.72,0-4.08h-4.08v4.08c1.36,0,2.72,0,4.08,0,0,1.36,0,2.72,0,4.08-1.36,0-2.72,0-4.08,0v4.08h4.08c0-1.36,0-2.72,0-4.08,1.36,0,2.72,0,4.08,0,0,1.36,0,2.72,0,4.08h4.08v-4.08c-1.36,0-2.72,0-4.08,0,0-1.36,0-2.72,0-4.08,1.36,0,2.72,0,4.08,0v-4.08h-4.08c0,1.36,0,2.72,0,4.08-1.36,0-2.72,0-4.08,0ZM261.56,424.52h-4.08v4.08h4.08v-4.08ZM277.88,424.52h-4.08v4.08h4.08v-4.08ZM261.56,432.69h-4.08v4.08h4.08v-4.08ZM277.88,432.69h-4.08v4.08h4.08v-4.08ZM286.04,432.69h-4.08v4.08h4.08v-4.08ZM294.21,432.69h-4.08v4.08h4.08v-4.08ZM302.37,432.69h-4.08v4.08h4.08v-4.08ZM269.72,440.85h-4.08v4.08h4.08v-4.08ZM286.04,440.85h-4.08v4.08h4.08v-4.08ZM294.21,440.85h-4.08v4.08h4.08v-4.08ZM302.37,440.85h-4.08v4.08h4.08v-4.08ZM269.72,449.01h-4.08v4.08h4.08v-4.08ZM277.88,449.01h-4.08v4.08h4.08v-4.08ZM286.04,449.01h-4.08v4.08h4.08v-4.08ZM294.21,449.01h-4.08v4.08h4.08v-4.08Z"/>
          <path class="cls-20" d="M343.18,436.77c0,1.36,0,2.72,0,4.08-1.36,0-2.72,0-4.08,0,0-1.36,0-2.72,0-4.08,1.36,0,2.72,0,4.08,0Z"/>
          <path class="cls-20" d="M290.12,359.22c0,1.36,0,2.72,0,4.08,1.36,0,2.72,0,4.08,0,0,1.36,0,2.72,0,4.08-1.36,0-2.72,0-4.08,0v4.08c1.36,0,2.72,0,4.08,0,0,1.36,0,2.72,0,4.08-1.36,0-2.72,0-4.08,0,0,1.36,0,2.72,0,4.08-1.36,0-2.72,0-4.08,0,0-1.36,0-2.72,0-4.08-1.36,0-2.72,0-4.08,0,0-1.36,0-2.72,0-4.08,1.36,0,2.72,0,4.08,0v-4.08c-1.36,0-2.72,0-4.08,0,0-1.36,0-2.72,0-4.08,1.36,0,2.72,0,4.08,0,0-1.36,0-2.72,0-4.08,1.36,0,2.72,0,4.08,0Z"/>
          <path class="cls-20" d="M265.64,293.92c0,1.36,0,2.72,0,4.08-1.36,0-2.72,0-4.08,0,0-1.36,0-2.72,0-4.08,1.36,0,2.72,0,4.08,0Z"/>
          <path class="cls-20" d="M298.29,359.22c0,1.36,0,2.72,0,4.08-1.36,0-2.72,0-4.08,0,0-1.36,0-2.72,0-4.08,1.36,0,2.72,0,4.08,0Z"/>
          <path class="cls-20" d="M335.02,436.77c0,1.36,0,2.72,0,4.08-1.36,0-2.72,0-4.08,0,0-1.36,0-2.72,0-4.08,1.36,0,2.72,0,4.08,0Z"/>
          <path class="cls-20" d="M306.45,359.22c0,1.36,0,2.72,0,4.08-1.36,0-2.72,0-4.08,0,0-1.36,0-2.72,0-4.08,1.36,0,2.72,0,4.08,0Z"/>
          <path class="cls-20" d="M273.8,293.92c0,1.36,0,2.72,0,4.08,1.36,0,2.72,0,4.08,0,0,1.36,0,2.72,0,4.08-1.36,0-2.72,0-4.08,0,0,1.36,0,2.72,0,4.08-1.36,0-2.72,0-4.08,0,0-1.36,0-2.72,0-4.08-1.36,0-2.72,0-4.08,0,0-1.36,0-2.72,0-4.08,1.36,0,2.72,0,4.08,0,0-1.36,0-2.72,0-4.08,1.36,0,2.72,0,4.08,0Z"/>
          <path class="cls-20" d="M314.61,359.22c0,1.36,0,2.72,0,4.08-1.36,0-2.72,0-4.08,0,0-1.36,0-2.72,0-4.08,1.36,0,2.72,0,4.08,0Z"/>
          <path class="cls-20" d="M281.96,293.92c0,1.36,0,2.72,0,4.08-1.36,0-2.72,0-4.08,0,0-1.36,0-2.72,0-4.08,1.36,0,2.72,0,4.08,0Z"/>
          <path class="cls-20" d="M322.77,359.22c0,1.36,0,2.72,0,4.08-1.36,0-2.72,0-4.08,0,0-1.36,0-2.72,0-4.08,1.36,0,2.72,0,4.08,0Z"/>
          <path class="cls-20" d="M347.26,432.69c0,1.36,0,2.72,0,4.08-1.36,0-2.72,0-4.08,0,0-1.36,0-2.72,0-4.08,1.36,0,2.72,0,4.08,0Z"/>
          <path class="cls-20" d="M302.37,363.3c0,1.36,0,2.72,0,4.08-1.36,0-2.72,0-4.08,0,0-1.36,0-2.72,0-4.08,1.36,0,2.72,0,4.08,0Z"/>
          <path class="cls-20" d="M330.94,346.98c1.36,0,2.72,0,4.08,0v4.08c-1.36,0-2.72,0-4.08,0,0-1.36,0-2.72,0-4.08Z"/>
          <path class="cls-20" d="M310.53,363.3c0,1.36,0,2.72,0,4.08-1.36,0-2.72,0-4.08,0,0-1.36,0-2.72,0-4.08,1.36,0,2.72,0,4.08,0Z"/>
          <path class="cls-20" d="M326.86,346.98c0,1.36,0,2.72,0,4.08-1.36,0-2.72,0-4.08,0,0-1.36,0-2.72,0-4.08,1.36,0,2.72,0,4.08,0Z"/>
          <path class="cls-20" d="M318.69,363.3c0,1.36,0,2.72,0,4.08-1.36,0-2.72,0-4.08,0,0-1.36,0-2.72,0-4.08,1.36,0,2.72,0,4.08,0Z"/>
          <path class="cls-20" d="M318.69,346.98c0,1.36,0,2.72,0,4.08-1.36,0-2.72,0-4.08,0,0-1.36,0-2.72,0-4.08,1.36,0,2.72,0,4.08,0Z"/>
          <path class="cls-20" d="M322.77,363.3c1.36,0,2.72,0,4.08,0v4.08c-1.36,0-2.72,0-4.08,0,0-1.36,0-2.72,0-4.08Z"/>
          <path class="cls-20" d="M335.02,363.3c0,1.36,0,2.72,0,4.08-1.36,0-2.72,0-4.08,0v-4.08c1.36,0,2.72,0,4.08,0Z"/>
          <path class="cls-20" d="M310.53,346.98c0,1.36,0,2.72,0,4.08-1.36,0-2.72,0-4.08,0,0-1.36,0-2.72,0-4.08,1.36,0,2.72,0,4.08,0Z"/>
          <path class="cls-20" d="M339.1,363.3c1.36,0,2.72,0,4.08,0v4.08c-1.36,0-2.72,0-4.08,0,0-1.36,0-2.72,0-4.08Z"/>
          <path class="cls-20" d="M290.12,293.92c0,1.36,0,2.72,0,4.08-1.36,0-2.72,0-4.08,0,0-1.36,0-2.72,0-4.08,1.36,0,2.72,0,4.08,0Z"/>
          <path class="cls-20" d="M339.1,432.69c0,1.36,0,2.72,0,4.08-1.36,0-2.72,0-4.08,0,0-1.36,0-2.72,0-4.08,1.36,0,2.72,0,4.08,0Z"/>
          <path class="cls-20" d="M298.29,293.92c0,1.36,0,2.72,0,4.08-1.36,0-2.72,0-4.08,0,0-1.36,0-2.72,0-4.08,1.36,0,2.72,0,4.08,0Z"/>
          <path class="cls-20" d="M330.94,432.69c0,1.36,0,2.72,0,4.08-1.36,0-2.72,0-4.08,0,0-1.36,0-2.72,0-4.08,1.36,0,2.72,0,4.08,0Z"/>
          <path class="cls-20" d="M302.37,293.92c1.36,0,2.72,0,4.08,0,0,1.36,0,2.72,0,4.08-1.36,0-2.72,0-4.08,0,0-1.36,0-2.72,0-4.08Z"/>
          <path class="cls-20" d="M286.04,298c0,1.36,0,2.72,0,4.08-1.36,0-2.72,0-4.08,0,0-1.36,0-2.72,0-4.08,1.36,0,2.72,0,4.08,0Z"/>
          <path class="cls-20" d="M314.61,432.69c0,1.36,0,2.72,0,4.08-1.36,0-2.72,0-4.08,0,0-1.36,0-2.72,0-4.08,1.36,0,2.72,0,4.08,0Z"/>
          <path class="cls-20" d="M294.21,298c0,1.36,0,2.72,0,4.08-1.36,0-2.72,0-4.08,0,0-1.36,0-2.72,0-4.08,1.36,0,2.72,0,4.08,0Z"/>
          <path class="cls-20" d="M306.45,457.17c0,1.36,0,2.72,0,4.08h-4.08c0-1.36,0-2.72,0-4.08,1.36,0,2.72,0,4.08,0Z"/>
          <path class="cls-20" d="M322.77,342.9c0,1.36,0,2.72,0,4.08-1.36,0-2.72,0-4.08,0,0-1.36,0-2.72,0-4.08,1.36,0,2.72,0,4.08,0Z"/>
          <path class="cls-20" d="M281.96,367.38c0,1.36,0,2.72,0,4.08-1.36,0-2.72,0-4.08,0,0-1.36,0-2.72,0-4.08,1.36,0,2.72,0,4.08,0Z"/>
          <path class="cls-20" d="M314.61,342.9c0,1.36,0,2.72,0,4.08-1.36,0-2.72,0-4.08,0,0-1.36,0-2.72,0-4.08,1.36,0,2.72,0,4.08,0Z"/>
          <path class="cls-20" d="M306.45,342.9c0,1.36,0,2.72,0,4.08-1.36,0-2.72,0-4.08,0,0-1.36,0-2.72,0-4.08,1.36,0,2.72,0,4.08,0Z"/>
          <path class="cls-20" d="M298.29,367.38c0,1.36,0,2.72,0,4.08-1.36,0-2.72,0-4.08,0,0-1.36,0-2.72,0-4.08,1.36,0,2.72,0,4.08,0Z"/>
          <path class="cls-20" d="M298.29,342.9c0,1.36,0,2.72,0,4.08,1.36,0,2.72,0,4.08,0,0,1.36,0,2.72,0,4.08-1.36,0-2.72,0-4.08,0,0,1.36,0,2.72,0,4.08-1.36,0-2.72,0-4.08,0,0-1.36,0-2.72,0-4.08-1.36,0-2.72,0-4.08,0,0-1.36,0-2.72,0-4.08,1.36,0,2.72,0,4.08,0,0-1.36,0-2.72,0-4.08,1.36,0,2.72,0,4.08,0Z"/>
          <path class="cls-20" d="M306.45,367.38c0,1.36,0,2.72,0,4.08-1.36,0-2.72,0-4.08,0,0-1.36,0-2.72,0-4.08,1.36,0,2.72,0,4.08,0Z"/>
          <path class="cls-20" d="M290.12,342.9c0,1.36,0,2.72,0,4.08-1.36,0-2.72,0-4.08,0,0-1.36,0-2.72,0-4.08,1.36,0,2.72,0,4.08,0Z"/>
          <path class="cls-20" d="M314.61,367.38c0,1.36,0,2.72,0,4.08-1.36,0-2.72,0-4.08,0,0-1.36,0-2.72,0-4.08,1.36,0,2.72,0,4.08,0Z"/>
          <path class="cls-20" d="M351.34,428.6c0,1.36,0,2.72,0,4.08-1.36,0-2.72,0-4.08,0,0-1.36,0-2.72,0-4.08,1.36,0,2.72,0,4.08,0Z"/>
          <path class="cls-20" d="M322.77,367.38c0,1.36,0,2.72,0,4.08-1.36,0-2.72,0-4.08,0,0-1.36,0-2.72,0-4.08,1.36,0,2.72,0,4.08,0Z"/>
          <path class="cls-20" d="M339.1,367.38c0,1.36,0,2.72,0,4.08-1.36,0-2.72,0-4.08,0,0-1.36,0-2.72,0-4.08,1.36,0,2.72,0,4.08,0Z"/>
          <path class="cls-20" d="M302.37,298c0,1.36,0,2.72,0,4.08-1.36,0-2.72,0-4.08,0,0-1.36,0-2.72,0-4.08,1.36,0,2.72,0,4.08,0Z"/>
          <path class="cls-20" d="M343.18,428.6c0,1.36,0,2.72,0,4.08-1.36,0-2.72,0-4.08,0,0-1.36,0-2.72,0-4.08,1.36,0,2.72,0,4.08,0Z"/>
          <path class="cls-20" d="M302.37,371.47c0,1.36,0,2.72,0,4.08-1.36,0-2.72,0-4.08,0,0-1.36,0-2.72,0-4.08,1.36,0,2.72,0,4.08,0Z"/>
          <path class="cls-20" d="M306.45,298c1.36,0,2.72,0,4.08,0v4.08c-1.36,0-2.72,0-4.08,0,0-1.36,0-2.72,0-4.08Z"/>
          <path class="cls-20" d="M310.53,371.47c0,1.36,0,2.72,0,4.08-1.36,0-2.72,0-4.08,0,0-1.36,0-2.72,0-4.08,1.36,0,2.72,0,4.08,0Z"/>
          <path class="cls-20" d="M330.94,342.9c0-1.36,0-2.72,0-4.08h4.08v4.08c-1.36,0-2.72,0-4.08,0,0,1.36,0,2.72,0,4.08-1.36,0-2.72,0-4.08,0,0-1.36,0-2.72,0-4.08,1.36,0,2.72,0,4.08,0Z"/>
          <path class="cls-20" d="M318.69,371.47c0,1.36,0,2.72,0,4.08-1.36,0-2.72,0-4.08,0,0-1.36,0-2.72,0-4.08,1.36,0,2.72,0,4.08,0Z"/>
          <path class="cls-20" d="M322.77,338.82c1.36,0,2.72,0,4.08,0,0,1.36,0,2.72,0,4.08-1.36,0-2.72,0-4.08,0,0-1.36,0-2.72,0-4.08Z"/>
          <path class="cls-20" d="M322.77,371.47c1.36,0,2.72,0,4.08,0,0,1.36,0,2.72,0,4.08-1.36,0-2.72,0-4.08,0,0-1.36,0-2.72,0-4.08Z"/>
          <path class="cls-20" d="M335.02,371.47c0,1.36,0,2.72,0,4.08-1.36,0-2.72,0-4.08,0,0-1.36,0-2.72,0-4.08,1.36,0,2.72,0,4.08,0Z"/>
          <path class="cls-20" d="M318.69,338.82c0,1.36,0,2.72,0,4.08-1.36,0-2.72,0-4.08,0,0-1.36,0-2.72,0-4.08,1.36,0,2.72,0,4.08,0Z"/>
          <path class="cls-20" d="M339.1,371.47c1.36,0,2.72,0,4.08,0,0,1.36,0,2.72,0,4.08-1.36,0-2.72,0-4.08,0,0-1.36,0-2.72,0-4.08Z"/>
          <path class="cls-20" d="M347.26,375.55c0-1.36,0-2.72,0-4.08h4.08v4.08c-1.36,0-2.72,0-4.08,0,0,1.36,0,2.72,0,4.08-1.36,0-2.72,0-4.08,0,0-1.36,0-2.72,0-4.08,1.36,0,2.72,0,4.08,0Z"/>
          <path class="cls-20" d="M335.02,428.6c0,1.36,0,2.72,0,4.08-1.36,0-2.72,0-4.08,0,0-1.36,0-2.72,0-4.08,1.36,0,2.72,0,4.08,0Z"/>
          <path class="cls-20" d="M265.64,302.08c0,1.36,0,2.72,0,4.08-1.36,0-2.72,0-4.08,0,0-1.36,0-2.72,0-4.08,1.36,0,2.72,0,4.08,0Z"/>
          <path class="cls-20" d="M281.96,302.08c0,1.36,0,2.72,0,4.08-1.36,0-2.72,0-4.08,0,0-1.36,0-2.72,0-4.08,1.36,0,2.72,0,4.08,0Z"/>
          <path class="cls-20" d="M347.26,424.52c0,1.36,0,2.72,0,4.08-1.36,0-2.72,0-4.08,0,0-1.36,0-2.72,0-4.08,1.36,0,2.72,0,4.08,0Z"/>
          <path class="cls-20" d="M290.12,302.08c0,1.36,0,2.72,0,4.08-1.36,0-2.72,0-4.08,0,0-1.36,0-2.72,0-4.08,1.36,0,2.72,0,4.08,0Z"/>
          <path class="cls-20" d="M306.45,338.82c1.36,0,2.72,0,4.08,0,0,1.36,0,2.72,0,4.08-1.36,0-2.72,0-4.08,0,0-1.36,0-2.72,0-4.08Z"/>
          <path class="cls-20" d="M302.37,338.82c0,1.36,0,2.72,0,4.08-1.36,0-2.72,0-4.08,0,0-1.36,0-2.72,0-4.08,1.36,0,2.72,0,4.08,0Z"/>
          <path class="cls-20" d="M298.29,375.55c0,1.36,0,2.72,0,4.08,1.36,0,2.72,0,4.08,0,0,1.36,0,2.72,0,4.08-1.36,0-2.72,0-4.08,0v4.08c1.36,0,2.72,0,4.08,0,0,1.36,0,2.72,0,4.08-1.36,0-2.72,0-4.08,0,0,1.36,0,2.72,0,4.08-1.36,0-2.72,0-4.08,0,0-1.36,0-2.72,0-4.08-1.36,0-2.72,0-4.08,0,0-1.36,0-2.72,0-4.08,1.36,0,2.72,0,4.08,0v-4.08c-1.36,0-2.72,0-4.08,0,0-1.36,0-2.72,0-4.08,1.36,0,2.72,0,4.08,0,0-1.36,0-2.72,0-4.08,1.36,0,2.72,0,4.08,0Z"/>
          <path class="cls-20" d="M294.21,338.82c0,1.36,0,2.72,0,4.08-1.36,0-2.72,0-4.08,0,0-1.36,0-2.72,0-4.08,1.36,0,2.72,0,4.08,0Z"/>
          <path class="cls-20" d="M306.45,375.55c0,1.36,0,2.72,0,4.08-1.36,0-2.72,0-4.08,0,0-1.36,0-2.72,0-4.08,1.36,0,2.72,0,4.08,0Z"/>
          <path class="cls-20" d="M286.04,338.82c0,1.36,0,2.72,0,4.08-1.36,0-2.72,0-4.08,0,0-1.36,0-2.72,0-4.08,1.36,0,2.72,0,4.08,0Z"/>
          <path class="cls-20" d="M314.61,375.55c0,1.36,0,2.72,0,4.08,1.36,0,2.72,0,4.08,0,0,1.36,0,2.72,0,4.08h-4.08c0,1.36,0,2.72,0,4.08-1.36,0-2.72,0-4.08,0,0-1.36,0-2.72,0-4.08-1.36,0-2.72,0-4.08,0,0-1.36,0-2.72,0-4.08,1.36,0,2.72,0,4.08,0,0-1.36,0-2.72,0-4.08,1.36,0,2.72,0,4.08,0Z"/>
          <path class="cls-20" d="M322.77,334.73c0,1.36,0,2.72,0,4.08-1.36,0-2.72,0-4.08,0,0-1.36,0-2.72,0-4.08,1.36,0,2.72,0,4.08,0Z"/>
          <path class="cls-20" d="M322.77,375.55c0,1.36,0,2.72,0,4.08-1.36,0-2.72,0-4.08,0,0-1.36,0-2.72,0-4.08,1.36,0,2.72,0,4.08,0Z"/>
          <path class="cls-20" d="M306.45,334.73c0,1.36,0,2.72,0,4.08-1.36,0-2.72,0-4.08,0,0-1.36,0-2.72,0-4.08,1.36,0,2.72,0,4.08,0Z"/>
          <path class="cls-20" d="M330.94,375.55c0,1.36,0,2.72,0,4.08-1.36,0-2.72,0-4.08,0,0-1.36,0-2.72,0-4.08,1.36,0,2.72,0,4.08,0Z"/>
          <path class="cls-20" d="M298.29,334.73c0,1.36,0,2.72,0,4.08-1.36,0-2.72,0-4.08,0,0-1.36,0-2.72,0-4.08,1.36,0,2.72,0,4.08,0Z"/>
          <path class="cls-20" d="M290.12,334.73c0,1.36,0,2.72,0,4.08-1.36,0-2.72,0-4.08,0,0-1.36,0-2.72,0-4.08,1.36,0,2.72,0,4.08,0Z"/>
          <path class="cls-20" d="M281.96,334.73c0,1.36,0,2.72,0,4.08-1.36,0-2.72,0-4.08,0,0-1.36,0-2.72,0-4.08,1.36,0,2.72,0,4.08,0Z"/>
          <path class="cls-20" d="M326.86,379.63c0,1.36,0,2.72,0,4.08-1.36,0-2.72,0-4.08,0,0-1.36,0-2.72,0-4.08,1.36,0,2.72,0,4.08,0Z"/>
          <path class="cls-20" d="M265.64,334.73c0,1.36,0,2.72,0,4.08-1.36,0-2.72,0-4.08,0,0-1.36,0-2.72,0-4.08,1.36,0,2.72,0,4.08,0Z"/>
          <path class="cls-20" d="M330.94,379.63c1.36,0,2.72,0,4.08,0v4.08c-1.36,0-2.72,0-4.08,0,0-1.36,0-2.72,0-4.08Z"/>
          <path class="cls-20" d="M343.18,379.63c0,1.36,0,2.72,0,4.08-1.36,0-2.72,0-4.08,0v-4.08c1.36,0,2.72,0,4.08,0Z"/>
          <path class="cls-20" d="M339.1,424.52c0,1.36,0,2.72,0,4.08-1.36,0-2.72,0-4.08,0,0-1.36,0-2.72,0-4.08,1.36,0,2.72,0,4.08,0Z"/>
          <path class="cls-20" d="M347.26,379.63c1.36,0,2.72,0,4.08,0v4.08c-1.36,0-2.72,0-4.08,0,0-1.36,0-2.72,0-4.08Z"/>
          <path class="cls-20" d="M306.45,302.08c0,1.36,0,2.72,0,4.08-1.36,0-2.72,0-4.08,0,0-1.36,0-2.72,0-4.08,1.36,0,2.72,0,4.08,0Z"/>
          <path class="cls-20" d="M330.94,424.52c0,1.36,0,2.72,0,4.08-1.36,0-2.72,0-4.08,0,0-1.36,0-2.72,0-4.08,1.36,0,2.72,0,4.08,0Z"/>
          <path class="cls-20" d="M269.72,306.17c0,1.36,0,2.72,0,4.08-1.36,0-2.72,0-4.08,0,0-1.36,0-2.72,0-4.08,1.36,0,2.72,0,4.08,0Z"/>
          <path class="cls-20" d="M322.77,424.52c0,1.36,0,2.72,0,4.08,1.36,0,2.72,0,4.08,0,0,1.36,0,2.72,0,4.08-1.36,0-2.72,0-4.08,0v4.08c1.36,0,2.72,0,4.08,0,0,1.36,0,2.72,0,4.08-1.36,0-2.72,0-4.08,0,0,1.36,0,2.72,0,4.08-1.36,0-2.72,0-4.08,0,0-1.36,0-2.72,0-4.08-1.36,0-2.72,0-4.08,0,0-1.36,0-2.72,0-4.08,1.36,0,2.72,0,4.08,0v-4.08c-1.36,0-2.72,0-4.08,0,0-1.36,0-2.72,0-4.08,1.36,0,2.72,0,4.08,0,0-1.36,0-2.72,0-4.08,1.36,0,2.72,0,4.08,0Z"/>
          <path class="cls-20" d="M277.88,306.17c0,1.36,0,2.72,0,4.08-1.36,0-2.72,0-4.08,0,0-1.36,0-2.72,0-4.08,1.36,0,2.72,0,4.08,0Z"/>
          <path class="cls-20" d="M314.61,424.52c0,1.36,0,2.72,0,4.08-1.36,0-2.72,0-4.08,0,0-1.36,0-2.72,0-4.08,1.36,0,2.72,0,4.08,0Z"/>
          <path class="cls-20" d="M286.04,306.17c0,1.36,0,2.72,0,4.08-1.36,0-2.72,0-4.08,0,0-1.36,0-2.72,0-4.08,1.36,0,2.72,0,4.08,0Z"/>
          <path class="cls-20" d="M355.43,424.52c0-1.36,0-2.72,0-4.08h4.08v4.08c-1.36,0-2.72,0-4.08,0,0,1.36,0,2.72,0,4.08-1.36,0-2.72,0-4.08,0,0-1.36,0-2.72,0-4.08,1.36,0,2.72,0,4.08,0Z"/>
          <path class="cls-20" d="M290.12,383.71c0,1.36,0,2.72,0,4.08-1.36,0-2.72,0-4.08,0,0-1.36,0-2.72,0-4.08,1.36,0,2.72,0,4.08,0Z"/>
          <path class="cls-20" d="M347.26,420.44c1.36,0,2.72,0,4.08,0,0,1.36,0,2.72,0,4.08-1.36,0-2.72,0-4.08,0,0-1.36,0-2.72,0-4.08Z"/>
          <path class="cls-20" d="M290.12,306.17c1.36,0,2.72,0,4.08,0,0,1.36,0,2.72,0,4.08-1.36,0-2.72,0-4.08,0,0-1.36,0-2.72,0-4.08Z"/>
          <path class="cls-20" d="M306.45,383.71c0,1.36,0,2.72,0,4.08-1.36,0-2.72,0-4.08,0,0-1.36,0-2.72,0-4.08,1.36,0,2.72,0,4.08,0Z"/>
          <path class="cls-20" d="M343.18,420.44c0,1.36,0,2.72,0,4.08-1.36,0-2.72,0-4.08,0,0-1.36,0-2.72,0-4.08,1.36,0,2.72,0,4.08,0Z"/>
          <path class="cls-20" d="M330.94,383.71c0,1.36,0,2.72,0,4.08-1.36,0-2.72,0-4.08,0,0-1.36,0-2.72,0-4.08,1.36,0,2.72,0,4.08,0Z"/>
          <path class="cls-20" d="M347.26,383.71c0,1.36,0,2.72,0,4.08-1.36,0-2.72,0-4.08,0,0-1.36,0-2.72,0-4.08,1.36,0,2.72,0,4.08,0Z"/>
          <path class="cls-20" d="M330.94,420.44c1.36,0,2.72,0,4.08,0,0,1.36,0,2.72,0,4.08-1.36,0-2.72,0-4.08,0,0-1.36,0-2.72,0-4.08Z"/>
          <path class="cls-20" d="M302.37,306.17c0,1.36,0,2.72,0,4.08-1.36,0-2.72,0-4.08,0,0-1.36,0-2.72,0-4.08,1.36,0,2.72,0,4.08,0Z"/>
          <path class="cls-20" d="M310.53,387.79c0,1.36,0,2.72,0,4.08-1.36,0-2.72,0-4.08,0,0-1.36,0-2.72,0-4.08,1.36,0,2.72,0,4.08,0Z"/>
          <path class="cls-20" d="M326.86,420.44c0,1.36,0,2.72,0,4.08-1.36,0-2.72,0-4.08,0,0-1.36,0-2.72,0-4.08,1.36,0,2.72,0,4.08,0Z"/>
          <path class="cls-20" d="M314.61,387.79c1.36,0,2.72,0,4.08,0,0,1.36,0,2.72,0,4.08-1.36,0-2.72,0-4.08,0,0-1.36,0-2.72,0-4.08Z"/>
          <path class="cls-20" d="M326.86,387.79c0,1.36,0,2.72,0,4.08-1.36,0-2.72,0-4.08,0,0-1.36,0-2.72,0-4.08,1.36,0,2.72,0,4.08,0Z"/>
          <path class="cls-20" d="M322.77,330.65c1.36,0,2.72,0,4.08,0v4.08c-1.36,0-2.72,0-4.08,0,0-1.36,0-2.72,0-4.08Z"/>
          <path class="cls-20" d="M330.94,387.79c1.36,0,2.72,0,4.08,0,0,1.36,0,2.72,0,4.08-1.36,0-2.72,0-4.08,0,0-1.36,0-2.72,0-4.08Z"/>
          <path class="cls-20" d="M343.18,387.79c0,1.36,0,2.72,0,4.08-1.36,0-2.72,0-4.08,0,0-1.36,0-2.72,0-4.08,1.36,0,2.72,0,4.08,0Z"/>
          <path class="cls-20" d="M318.69,330.65c0,1.36,0,2.72,0,4.08-1.36,0-2.72,0-4.08,0v-4.08c1.36,0,2.72,0,4.08,0Z"/>
          <path class="cls-20" d="M347.26,387.79c1.36,0,2.72,0,4.08,0,0,1.36,0,2.72,0,4.08-1.36,0-2.72,0-4.08,0,0-1.36,0-2.72,0-4.08Z"/>
          <path class="cls-20" d="M355.43,391.87c0-1.36,0-2.72,0-4.08h4.08v4.08c-1.36,0-2.72,0-4.08,0,0,1.36,0,2.72,0,4.08-1.36,0-2.72,0-4.08,0,0-1.36,0-2.72,0-4.08,1.36,0,2.72,0,4.08,0Z"/>
          <path class="cls-20" d="M306.45,306.17c1.36,0,2.72,0,4.08,0,0,1.36,0,2.72,0,4.08-1.36,0-2.72,0-4.08,0,0-1.36,0-2.72,0-4.08Z"/>
          <path class="cls-20" d="M318.69,420.44c0,1.36,0,2.72,0,4.08-1.36,0-2.72,0-4.08,0,0-1.36,0-2.72,0-4.08,1.36,0,2.72,0,4.08,0Z"/>
          <path class="cls-20" d="M314.61,310.25c0-1.36,0-2.72,0-4.08h4.08v4.08c-1.36,0-2.72,0-4.08,0,0,1.36,0,2.72,0,4.08-1.36,0-2.72,0-4.08,0,0-1.36,0-2.72,0-4.08,1.36,0,2.72,0,4.08,0Z"/>
          <path class="cls-20" d="M306.45,330.65c1.36,0,2.72,0,4.08,0v4.08c-1.36,0-2.72,0-4.08,0,0-1.36,0-2.72,0-4.08Z"/>
          <path class="cls-20" d="M302.37,330.65c0,1.36,0,2.72,0,4.08-1.36,0-2.72,0-4.08,0,0-1.36,0-2.72,0-4.08,1.36,0,2.72,0,4.08,0Z"/>
          <path class="cls-20" d="M306.45,391.87c0,1.36,0,2.72,0,4.08,1.36,0,2.72,0,4.08,0,0,1.36,0,2.72,0,4.08-1.36,0-2.72,0-4.08,0v4.08c1.36,0,2.72,0,4.08,0,0,1.36,0,2.72,0,4.08-1.36,0-2.72,0-4.08,0,0,1.36,0,2.72,0,4.08-1.36,0-2.72,0-4.08,0,0-1.36,0-2.72,0-4.08-1.36,0-2.72,0-4.08,0,0-1.36,0-2.72,0-4.08,1.36,0,2.72,0,4.08,0v-4.08c-1.36,0-2.72,0-4.08,0,0-1.36,0-2.72,0-4.08,1.36,0,2.72,0,4.08,0,0-1.36,0-2.72,0-4.08,1.36,0,2.72,0,4.08,0Z"/>
          <path class="cls-20" d="M294.21,330.65c0,1.36,0,2.72,0,4.08-1.36,0-2.72,0-4.08,0,0-1.36,0-2.72,0-4.08,1.36,0,2.72,0,4.08,0Z"/>
          <path class="cls-20" d="M314.61,391.87c0,1.36,0,2.72,0,4.08-1.36,0-2.72,0-4.08,0,0-1.36,0-2.72,0-4.08,1.36,0,2.72,0,4.08,0Z"/>
          <path class="cls-20" d="M286.04,330.65c0,1.36,0,2.72,0,4.08-1.36,0-2.72,0-4.08,0,0-1.36,0-2.72,0-4.08,1.36,0,2.72,0,4.08,0Z"/>
          <path class="cls-20" d="M322.77,391.87c0,1.36,0,2.72,0,4.08-1.36,0-2.72,0-4.08,0,0-1.36,0-2.72,0-4.08,1.36,0,2.72,0,4.08,0Z"/>
          <path class="cls-20" d="M306.45,326.57c0,1.36,0,2.72,0,4.08-1.36,0-2.72,0-4.08,0,0-1.36,0-2.72,0-4.08,1.36,0,2.72,0,4.08,0Z"/>
          <path class="cls-20" d="M330.94,391.87c0,1.36,0,2.72,0,4.08-1.36,0-2.72,0-4.08,0,0-1.36,0-2.72,0-4.08,1.36,0,2.72,0,4.08,0Z"/>
          <path class="cls-20" d="M298.29,326.57c0,1.36,0,2.72,0,4.08-1.36,0-2.72,0-4.08,0,0-1.36,0-2.72,0-4.08,1.36,0,2.72,0,4.08,0Z"/>
          <path class="cls-20" d="M339.1,391.87c0,1.36,0,2.72,0,4.08-1.36,0-2.72,0-4.08,0,0-1.36,0-2.72,0-4.08,1.36,0,2.72,0,4.08,0Z"/>
          <path class="cls-20" d="M290.12,326.57c0,1.36,0,2.72,0,4.08-1.36,0-2.72,0-4.08,0,0-1.36,0-2.72,0-4.08,1.36,0,2.72,0,4.08,0Z"/>
          <path class="cls-20" d="M281.96,326.57c0,1.36,0,2.72,0,4.08-1.36,0-2.72,0-4.08,0,0-1.36,0-2.72,0-4.08,1.36,0,2.72,0,4.08,0Z"/>
          <path class="cls-20" d="M318.69,395.95c0,1.36,0,2.72,0,4.08-1.36,0-2.72,0-4.08,0,0-1.36,0-2.72,0-4.08,1.36,0,2.72,0,4.08,0Z"/>
          <path class="cls-20" d="M310.53,420.44c0,1.36,0,2.72,0,4.08-1.36,0-2.72,0-4.08,0,0-1.36,0-2.72,0-4.08,1.36,0,2.72,0,4.08,0Z"/>
          <path class="cls-20" d="M326.86,395.95c0,1.36,0,2.72,0,4.08-1.36,0-2.72,0-4.08,0,0-1.36,0-2.72,0-4.08,1.36,0,2.72,0,4.08,0Z"/>
          <path class="cls-20" d="M347.26,416.36c0,1.36,0,2.72,0,4.08-1.36,0-2.72,0-4.08,0,0-1.36,0-2.72,0-4.08,1.36,0,2.72,0,4.08,0Z"/>
          <path class="cls-20" d="M335.02,395.95c0,1.36,0,2.72,0,4.08-1.36,0-2.72,0-4.08,0,0-1.36,0-2.72,0-4.08,1.36,0,2.72,0,4.08,0Z"/>
          <path class="cls-20" d="M330.94,416.36c0,1.36,0,2.72,0,4.08-1.36,0-2.72,0-4.08,0,0-1.36,0-2.72,0-4.08,1.36,0,2.72,0,4.08,0Z"/>
          <path class="cls-20" d="M339.1,395.95c1.36,0,2.72,0,4.08,0v4.08c-1.36,0-2.72,0-4.08,0,0-1.36,0-2.72,0-4.08Z"/>
          <path class="cls-20" d="M351.34,395.95c0,1.36,0,2.72,0,4.08-1.36,0-2.72,0-4.08,0v-4.08c1.36,0,2.72,0,4.08,0Z"/>
          <path class="cls-20" d="M273.8,310.25c0,1.36,0,2.72,0,4.08-1.36,0-2.72,0-4.08,0,0-1.36,0-2.72,0-4.08,1.36,0,2.72,0,4.08,0Z"/>
          <path class="cls-20" d="M355.43,395.95c1.36,0,2.72,0,4.08,0v4.08c-1.36,0-2.72,0-4.08,0,0-1.36,0-2.72,0-4.08Z"/>
          <path class="cls-20" d="M322.77,416.36c0,1.36,0,2.72,0,4.08-1.36,0-2.72,0-4.08,0,0-1.36,0-2.72,0-4.08,1.36,0,2.72,0,4.08,0Z"/>
          <path class="cls-20" d="M281.96,310.25c0,1.36,0,2.72,0,4.08,1.36,0,2.72,0,4.08,0,0,1.36,0,2.72,0,4.08-1.36,0-2.72,0-4.08,0,0,1.36,0,2.72,0,4.08-1.36,0-2.72,0-4.08,0,0-1.36,0-2.72,0-4.08-1.36,0-2.72,0-4.08,0,0-1.36,0-2.72,0-4.08,1.36,0,2.72,0,4.08,0,0-1.36,0-2.72,0-4.08,1.36,0,2.72,0,4.08,0Z"/>
          <path class="cls-20" d="M290.12,310.25c0,1.36,0,2.72,0,4.08-1.36,0-2.72,0-4.08,0,0-1.36,0-2.72,0-4.08,1.36,0,2.72,0,4.08,0Z"/>
          <path class="cls-20" d="M306.45,416.36c0,1.36,0,2.72,0,4.08-1.36,0-2.72,0-4.08,0,0-1.36,0-2.72,0-4.08,1.36,0,2.72,0,4.08,0Z"/>
          <path class="cls-20" d="M298.29,310.25c0,1.36,0,2.72,0,4.08-1.36,0-2.72,0-4.08,0,0-1.36,0-2.72,0-4.08,1.36,0,2.72,0,4.08,0Z"/>
          <path class="cls-20" d="M347.26,412.28c1.36,0,2.72,0,4.08,0v4.08c-1.36,0-2.72,0-4.08,0,0-1.36,0-2.72,0-4.08Z"/>
          <path class="cls-20" d="M306.45,310.25c0,1.36,0,2.72,0,4.08-1.36,0-2.72,0-4.08,0,0-1.36,0-2.72,0-4.08,1.36,0,2.72,0,4.08,0Z"/>
          <path class="cls-20" d="M343.18,412.28c0,1.36,0,2.72,0,4.08-1.36,0-2.72,0-4.08,0,0-1.36,0-2.72,0-4.08,1.36,0,2.72,0,4.08,0Z"/>
          <path class="cls-20" d="M298.29,400.04c0,1.36,0,2.72,0,4.08-1.36,0-2.72,0-4.08,0,0-1.36,0-2.72,0-4.08,1.36,0,2.72,0,4.08,0Z"/>
          <path class="cls-20" d="M294.21,314.33c0,1.36,0,2.72,0,4.08-1.36,0-2.72,0-4.08,0,0-1.36,0-2.72,0-4.08,1.36,0,2.72,0,4.08,0Z"/>
          <path class="cls-20" d="M322.77,326.57c0-1.36,0-2.72,0-4.08h4.08v4.08c-1.36,0-2.72,0-4.08,0,0,1.36,0,2.72,0,4.08-1.36,0-2.72,0-4.08,0,0-1.36,0-2.72,0-4.08,1.36,0,2.72,0,4.08,0Z"/>
          <path class="cls-20" d="M314.61,400.04c0,1.36,0,2.72,0,4.08-1.36,0-2.72,0-4.08,0,0-1.36,0-2.72,0-4.08,1.36,0,2.72,0,4.08,0Z"/>
          <path class="cls-20" d="M314.61,322.49c1.36,0,2.72,0,4.08,0,0,1.36,0,2.72,0,4.08-1.36,0-2.72,0-4.08,0,0-1.36,0-2.72,0-4.08Z"/>
          <path class="cls-20" d="M322.77,400.04c0,1.36,0,2.72,0,4.08-1.36,0-2.72,0-4.08,0,0-1.36,0-2.72,0-4.08,1.36,0,2.72,0,4.08,0Z"/>
          <path class="cls-20" d="M310.53,322.49c0,1.36,0,2.72,0,4.08-1.36,0-2.72,0-4.08,0,0-1.36,0-2.72,0-4.08,1.36,0,2.72,0,4.08,0Z"/>
          <path class="cls-20" d="M330.94,400.04c0,1.36,0,2.72,0,4.08-1.36,0-2.72,0-4.08,0,0-1.36,0-2.72,0-4.08,1.36,0,2.72,0,4.08,0Z"/>
          <path class="cls-20" d="M298.29,322.49c1.36,0,2.72,0,4.08,0,0,1.36,0,2.72,0,4.08-1.36,0-2.72,0-4.08,0,0-1.36,0-2.72,0-4.08Z"/>
          <path class="cls-20" d="M339.1,400.04c0,1.36,0,2.72,0,4.08-1.36,0-2.72,0-4.08,0,0-1.36,0-2.72,0-4.08,1.36,0,2.72,0,4.08,0Z"/>
          <path class="cls-20" d="M355.43,400.04c0,1.36,0,2.72,0,4.08,1.36,0,2.72,0,4.08,0,0,1.36,0,2.72,0,4.08,1.36,0,2.72,0,4.08,0,0-1.36,0-2.72,0-4.08h4.08v4.08c-1.36,0-2.72,0-4.08,0,0,1.36,0,2.72,0,4.08,1.36,0,2.72,0,4.08,0v4.08h-4.08c0-1.36,0-2.72,0-4.08-1.36,0-2.72,0-4.08,0,0,1.36,0,2.72,0,4.08h-4.08v-4.08c1.36,0,2.72,0,4.08,0,0-1.36,0-2.72,0-4.08-1.36,0-2.72,0-4.08,0,0-1.36,0-2.72,0-4.08-1.36,0-2.72,0-4.08,0,0-1.36,0-2.72,0-4.08,1.36,0,2.72,0,4.08,0Z"/>
          <path class="cls-20" d="M294.21,322.49c0,1.36,0,2.72,0,4.08-1.36,0-2.72,0-4.08,0,0-1.36,0-2.72,0-4.08,1.36,0,2.72,0,4.08,0Z"/>
          <path class="cls-20" d="M286.04,322.49c0,1.36,0,2.72,0,4.08-1.36,0-2.72,0-4.08,0,0-1.36,0-2.72,0-4.08,1.36,0,2.72,0,4.08,0Z"/>
          <path class="cls-20" d="M318.69,404.12c0,1.36,0,2.72,0,4.08-1.36,0-2.72,0-4.08,0,0-1.36,0-2.72,0-4.08,1.36,0,2.72,0,4.08,0Z"/>
          <path class="cls-20" d="M277.88,322.49c0,1.36,0,2.72,0,4.08-1.36,0-2.72,0-4.08,0,0-1.36,0-2.72,0-4.08,1.36,0,2.72,0,4.08,0Z"/>
          <path class="cls-20" d="M326.86,404.12c0,1.36,0,2.72,0,4.08-1.36,0-2.72,0-4.08,0,0-1.36,0-2.72,0-4.08,1.36,0,2.72,0,4.08,0Z"/>
          <path class="cls-20" d="M314.61,318.41c0,1.36,0,2.72,0,4.08-1.36,0-2.72,0-4.08,0,0-1.36,0-2.72,0-4.08,1.36,0,2.72,0,4.08,0Z"/>
          <path class="cls-20" d="M335.02,404.12c0,1.36,0,2.72,0,4.08-1.36,0-2.72,0-4.08,0,0-1.36,0-2.72,0-4.08,1.36,0,2.72,0,4.08,0Z"/>
          <path class="cls-20" d="M298.29,318.41c0,1.36,0,2.72,0,4.08-1.36,0-2.72,0-4.08,0,0-1.36,0-2.72,0-4.08,1.36,0,2.72,0,4.08,0Z"/>
          <path class="cls-20" d="M339.1,404.12c1.36,0,2.72,0,4.08,0,0,1.36,0,2.72,0,4.08-1.36,0-2.72,0-4.08,0,0-1.36,0-2.72,0-4.08Z"/>
          <path class="cls-20" d="M351.34,404.12c0,1.36,0,2.72,0,4.08-1.36,0-2.72,0-4.08,0,0-1.36,0-2.72,0-4.08,1.36,0,2.72,0,4.08,0Z"/>
          <path class="cls-20" d="M335.02,412.28c0,1.36,0,2.72,0,4.08-1.36,0-2.72,0-4.08,0,0-1.36,0-2.72,0-4.08,1.36,0,2.72,0,4.08,0Z"/>
          <path class="cls-20" d="M302.37,314.33c0,1.36,0,2.72,0,4.08-1.36,0-2.72,0-4.08,0,0-1.36,0-2.72,0-4.08,1.36,0,2.72,0,4.08,0Z"/>
          <path class="cls-20" d="M326.86,412.28c0,1.36,0,2.72,0,4.08-1.36,0-2.72,0-4.08,0,0-1.36,0-2.72,0-4.08,1.36,0,2.72,0,4.08,0Z"/>
          <path class="cls-20" d="M310.53,314.33c0,1.36,0,2.72,0,4.08-1.36,0-2.72,0-4.08,0,0-1.36,0-2.72,0-4.08,1.36,0,2.72,0,4.08,0Z"/>
          <path class="cls-20" d="M314.61,314.33c1.36,0,2.72,0,4.08,0v4.08c-1.36,0-2.72,0-4.08,0,0-1.36,0-2.72,0-4.08Z"/>
          <path class="cls-20" d="M290.12,318.41c0,1.36,0,2.72,0,4.08-1.36,0-2.72,0-4.08,0,0-1.36,0-2.72,0-4.08,1.36,0,2.72,0,4.08,0Z"/>
          <path class="cls-20" d="M273.8,318.41c0,1.36,0,2.72,0,4.08-1.36,0-2.72,0-4.08,0,0-1.36,0-2.72,0-4.08,1.36,0,2.72,0,4.08,0Z"/>
          <path class="cls-20" d="M314.61,408.2c0,1.36,0,2.72,0,4.08,1.36,0,2.72,0,4.08,0,0,1.36,0,2.72,0,4.08-1.36,0-2.72,0-4.08,0,0,1.36,0,2.72,0,4.08-1.36,0-2.72,0-4.08,0,0-1.36,0-2.72,0-4.08-1.36,0-2.72,0-4.08,0,0-1.36,0-2.72,0-4.08,1.36,0,2.72,0,4.08,0,0-1.36,0-2.72,0-4.08,1.36,0,2.72,0,4.08,0Z"/>
          <path class="cls-20" d="M347.26,408.2c0,1.36,0,2.72,0,4.08-1.36,0-2.72,0-4.08,0,0-1.36,0-2.72,0-4.08,1.36,0,2.72,0,4.08,0Z"/>
          <path class="cls-20" d="M322.77,408.2c0,1.36,0,2.72,0,4.08-1.36,0-2.72,0-4.08,0,0-1.36,0-2.72,0-4.08,1.36,0,2.72,0,4.08,0Z"/>
          <path class="cls-20" d="M339.1,408.2c0,1.36,0,2.72,0,4.08-1.36,0-2.72,0-4.08,0,0-1.36,0-2.72,0-4.08,1.36,0,2.72,0,4.08,0Z"/>
          <path class="cls-20" d="M330.94,408.2c0,1.36,0,2.72,0,4.08-1.36,0-2.72,0-4.08,0,0-1.36,0-2.72,0-4.08,1.36,0,2.72,0,4.08,0Z"/>
          <rect class="cls-20" x="314.61" y="298" width="4.08" height="4.08"/>
          <path class="cls-20" d="M326.86,310.25c-1.36,0-2.72,0-4.08,0v-4.08h4.08c0,1.36,0,2.72,0,4.08,1.36,0,2.72,0,4.08,0,0-1.36,0-2.72,0-4.08h4.08v4.08c-1.36,0-2.72,0-4.08,0,0,1.36,0,2.72,0,4.08,1.36,0,2.72,0,4.08,0v4.08h-4.08c0-1.36,0-2.72,0-4.08-1.36,0-2.72,0-4.08,0,0,1.36,0,2.72,0,4.08h-4.08v-4.08c1.36,0,2.72,0,4.08,0,0-1.36,0-2.72,0-4.08Z"/>
          <rect class="cls-20" x="339.1" y="314.33" width="4.08" height="4.08"/>
          <rect class="cls-20" x="347.26" y="314.33" width="4.08" height="4.08"/>
          <rect class="cls-20" x="330.94" y="322.49" width="4.08" height="4.08"/>
          <rect class="cls-20" x="339.1" y="322.49" width="4.08" height="4.08"/>
          <rect class="cls-20" x="347.26" y="322.49" width="4.08" height="4.08"/>
          <rect class="cls-20" x="330.94" y="330.65" width="4.08" height="4.08"/>
          <rect class="cls-20" x="339.1" y="330.65" width="4.08" height="4.08"/>
          <rect class="cls-20" x="347.26" y="330.65" width="4.08" height="4.08"/>
          <rect class="cls-20" x="355.43" y="330.65" width="4.08" height="4.08"/>
          <path class="cls-20" d="M343.18,342.9c-1.36,0-2.72,0-4.08,0v-4.08h4.08c0,1.36,0,2.72,0,4.08,1.36,0,2.72,0,4.08,0,0-1.36,0-2.72,0-4.08h4.08v4.08c-1.36,0-2.72,0-4.08,0,0,1.36,0,2.72,0,4.08,1.36,0,2.72,0,4.08,0v4.08h-4.08c0-1.36,0-2.72,0-4.08-1.36,0-2.72,0-4.08,0,0,1.36,0,2.72,0,4.08h-4.08v-4.08c1.36,0,2.72,0,4.08,0,0-1.36,0-2.72,0-4.08Z"/>
          <rect class="cls-20" x="355.43" y="338.82" width="4.08" height="4.08"/>
          <rect class="cls-20" x="355.43" y="346.98" width="4.08" height="4.08"/>
          <rect class="cls-20" x="363.59" y="346.98" width="4.08" height="4.08"/>
          <rect class="cls-20" x="371.75" y="346.98" width="4.08" height="4.08"/>
          <rect class="cls-20" x="347.26" y="355.14" width="4.08" height="4.08"/>
          <rect class="cls-20" x="355.43" y="355.14" width="4.08" height="4.08"/>
          <rect class="cls-20" x="363.59" y="355.14" width="4.08" height="4.08"/>
          <rect class="cls-20" x="347.26" y="363.3" width="4.08" height="4.08"/>
          <rect class="cls-20" x="355.43" y="363.3" width="4.08" height="4.08"/>
          <rect class="cls-20" x="363.59" y="363.3" width="4.08" height="4.08"/>
          <rect class="cls-20" x="371.75" y="363.3" width="4.08" height="4.08"/>
          <rect class="cls-20" x="355.43" y="371.47" width="4.08" height="4.08"/>
          <rect class="cls-20" x="363.59" y="371.47" width="4.08" height="4.08"/>
          <rect class="cls-20" x="371.75" y="371.47" width="4.08" height="4.08"/>
          <rect class="cls-20" x="355.43" y="379.63" width="4.08" height="4.08"/>
          <rect class="cls-20" x="363.59" y="379.63" width="4.08" height="4.08"/>
          <rect class="cls-20" x="371.75" y="379.63" width="4.08" height="4.08"/>
          <rect class="cls-20" x="363.59" y="387.79" width="4.08" height="4.08"/>
          <rect class="cls-20" x="363.59" y="395.95" width="4.08" height="4.08"/>
          <rect class="cls-20" x="371.75" y="395.95" width="4.08" height="4.08"/>
          <rect class="cls-20" x="371.75" y="404.12" width="4.08" height="4.08"/>
        </g>
        <path class="cls-12" d="M298.01,315.55s1.18-.39,3.28-.67c5.83-.77,11.76.49,16.89,3.36l9.55,5.34c2.2,1.23,3.74,3.36,4.21,5.83l.55,2.86c.75,3.89-1.27,7.78-4.88,9.4l-2.14.96c-1.51.68-3.18.9-4.82.65l-10.57-1.65c-1.37-.21-2.66-.76-3.78-1.58l-12.35-9.18c-3.48-2.59-4.47-7.37-2.29-11.12h0c1.34-2.31,3.68-3.87,6.34-4.2Z"/>
        <path class="cls-19" d="M269.5,288.27c-7.02,0-13.58,3.49-17.5,9.31l-1.91,2.83c-3.52,5.21-4.52,11.72-2.75,17.76l4.84,16.45c1.19,4.06,3.58,7.67,6.85,10.35l29.68,24.38c3.31,2.72,7.37,4.37,11.65,4.72l35.06,2.92c2.54.21,5.1-.04,7.55-.74l17.55-5.02c3.45-.99,6.59-2.83,9.13-5.37h0c6.45-6.45,8.03-16.32,3.91-24.46"/>
        <path class="cls-19" d="M208.72,338.91l10.34,22.3c4.93,10.62,11.94,20.14,20.62,28l20.14,18.23c7.6,6.87,17.24,11.06,27.45,11.92l31.87,2.67c3.29.28,6.61.11,9.86-.5l21.16-3.97c4.99-.94,9.74-2.89,13.93-5.75h0c9.96-6.78,15.97-18,16.09-30.05"/>
        <polyline class="cls-19" points="308 341.31 293.8 373.52 271.54 418.03 249.77 456.68"/>
        <path class="cls-19" d="M221.22,429.6s2.79-32.24,4.97-54.1c.92-9.24,22.22-29.18,27.8-36.59,0,0,5.14-4.98,17.04-10.08h0c7.93-3.4,17.07-2.32,23.99,2.83l12.98,9.65"/>
        <path class="cls-19" d="M308,341.31l-12.23-21.73c-1.29-2.3-3.17-4.22-5.43-5.58l-31.76-7.4c-9.17,1.33-17.79,5.2-24.87,11.19l-24.99,21.12"/>
        <path class="cls-19" d="M294.54,462.74l28.37-38.55c.8-1.16,1.43-2.42,1.87-3.75l7.23-21.55c4.65-13.84,3.72-28.95-2.59-42.12l-2.82-5.89c-2.16-4.51-6.4-7.66-11.34-8.43h0"/>
        <path class="cls-5" d="M298.01,315.55s1.18-.39,3.28-.67c5.83-.77,11.76.49,16.89,3.36l9.55,5.34c2.2,1.23,3.74,3.36,4.21,5.83l.55,2.86c.75,3.89-1.27,7.78-4.88,9.4l-2.14.96c-1.51.68-3.18.9-4.82.65l-10.57-1.65c-1.37-.21-2.66-.76-3.78-1.58l-12.35-9.18c-3.48-2.59-4.47-7.37-2.29-11.12h0c1.34-2.31,3.68-3.87,6.34-4.2Z"/>
        <path class="cls-19" d="M308,341.31s14.31-3.1,31.89-1.54h0c6.81.96,12.75,5.12,15.97,11.2l3.21,6.06c4.35,8.23,5.85,17.66,4.26,26.83l-4.58,26.41c-.66,3.83-2.36,7.41-4.9,10.35l-26.7,32.11"/>
        <path class="cls-19" d="M308,341.31l13.58-9.24c6.37-4.34,13.37-7.66,20.76-9.84l15.92-4.72"/>
        <path class="cls-19" d="M308,341.31l1.95-20.65c.41-4.38-.25-8.79-1.93-12.85l-8.07-17.97"/>
        <g>
          <path class="cls-14" d="M308,341.31l19.77-17.67c9.61-8.58,22.27-12.92,35.12-12.04l24.04,1.66-.58,7.43-23.17-3.63c-2.77-.43-5.58-.64-8.38-.44-7.52.54-14.8,3.04-21.09,7.3l-25.7,17.39"/>
          <ellipse class="cls-12" cx="386.72" cy="317" rx="3.88" ry="2.35" transform="translate(29.87 667.29) rotate(-83.81)"/>
        </g>
      </g>
    </g>
  </g>
</svg>