<?xml version="1.0" encoding="UTF-8"?>
<svg id="Layer_2" data-name="Layer 2" xmlns="http://www.w3.org/2000/svg" xmlns:xlink="http://www.w3.org/1999/xlink" viewBox="0 0 638.06 476.06">
  <defs>
    <style>
      .cls-1 {
        fill: #0b4199;
      }

      .cls-1, .cls-2, .cls-3, .cls-4, .cls-5, .cls-6, .cls-7, .cls-8, .cls-9, .cls-10, .cls-11, .cls-12, .cls-13 {
        stroke-miterlimit: 10;
      }

      .cls-1, .cls-4, .cls-6, .cls-7, .cls-8, .cls-10, .cls-12 {
        stroke: #6680d3;
      }

      .cls-14, .cls-2 {
        fill: #267b7f;
      }

      .cls-2, .cls-3, .cls-5, .cls-9, .cls-11, .cls-13 {
        stroke: #6bb9c6;
      }

      .cls-3, .cls-6, .cls-8, .cls-12, .cls-13 {
        fill: none;
      }

      .cls-4 {
        fill: #1b2f60;
      }

      .cls-15 {
        fill: #6680d3;
      }

      .cls-8 {
        stroke-dasharray: 4;
      }

      .cls-9 {
        fill: #0b8187;
      }

      .cls-10 {
        fill: url(#linear-gradient-2);
      }

      .cls-11 {
        fill: url(#linear-gradient);
      }

      .cls-12 {
        stroke-dasharray: 4 4;
      }

      .cls-13 {
        stroke-dasharray: 3.95 3.95;
      }
    </style>
    <linearGradient id="linear-gradient" x1="238.51" y1="466.13" x2="37.78" y2="402.94" gradientTransform="translate(55.13 -9.75) rotate(7.36)" gradientUnits="userSpaceOnUse">
      <stop offset=".29" stop-color="#fff"/>
      <stop offset=".42" stop-color="aqua"/>
      <stop offset=".74" stop-color="#000008"/>
    </linearGradient>
    <linearGradient id="linear-gradient-2" x1="280.74" y1="267.76" x2="440.01" y2="267.76" gradientUnits="userSpaceOnUse">
      <stop offset="0" stop-color="#ffffac"/>
      <stop offset=".35" stop-color="#6277ff"/>
      <stop offset=".76" stop-color="#000008"/>
    </linearGradient>
  </defs>
  <g id="Layer_1-2" data-name="Layer 1">
    <g>
      <g>
        <rect class="cls-5" x="5.79" y="331.21" width="183.29" height="92.76" transform="translate(-47.58 15.6) rotate(-7.36)"/>
        <ellipse class="cls-5" cx="91.49" cy="331.59" rx="91.65" ry="32.61" transform="translate(-41.73 14.46) rotate(-7.36)"/>
        <ellipse class="cls-2" cx="106.63" cy="448.76" rx="71.34" ry="25.38" transform="translate(-56.62 17.36) rotate(-7.36)"/>
        <g>
          <path class="cls-14" d="M64.4,358.01c-36.73,0-55.05-9.37-55.87-15.7-.5-3.88,5.29-11,19.36-18.15,15.58-7.92,37.05-13.95,60.45-16.97,10.32-1.33,20.5-2.01,30.25-2.01,36.72,0,55.04,9.37,55.86,15.7.5,3.88-5.29,11-19.36,18.15-15.58,7.92-37.05,13.95-60.45,16.97-10.32,1.33-20.5,2.01-30.25,2.01Z"/>
          <path class="cls-3" d="M64.4,358.01c-36.73,0-55.05-9.37-55.87-15.7-.5-3.88,5.29-11,19.36-18.15,15.58-7.92,37.05-13.95,60.45-16.97,10.32-1.33,20.5-2.01,30.25-2.01,36.72,0,55.04,9.37,55.86,15.7.5,3.88-5.29,11-19.36,18.15-15.58,7.92-37.05,13.95-60.45,16.97-10.32,1.33-20.5,2.01-30.25,2.01Z"/>
        </g>
        <ellipse class="cls-11" cx="103.38" cy="423.59" rx="91.65" ry="32.61" transform="translate(-53.42 16.74) rotate(-7.36)"/>
        <polygon class="cls-3" points="151.75 349.14 31.23 314.05 46.24 430.21 162.93 457.13 151.75 349.14"/>
        <ellipse class="cls-3" cx="106.63" cy="448.76" rx="71.34" ry="25.38" transform="translate(-56.62 17.36) rotate(-7.36)"/>
        <g>
          <path class="cls-9" d="M233.05,372.91l-.46,3.18c-1.05,7.29-6.27,13.28-13.34,15.33l-8.25,2.39c-3.6,1.03-7.41.98-10.97-.18l-8.47-2.75-1.19-9.25,8.65,3.46c3.06.99,6.34,1.05,9.43.15l7.08-2.04c6.08-1.75,10.56-6.9,11.46-13.16l.4-2.74c.5-3.51-5.16-19.15-5.32-19.62,1.43,1.28,2.67,2.79,3.66,4.51l5.01,8.69c2.1,3.64,2.92,7.88,2.32,12.03Z"/>
          <line class="cls-3" x1="222.06" y1="347.68" x2="222.05" y2="347.67"/>
          <path class="cls-5" d="M231.38,342.49c-2.68-3.72-6.75-6.28-11.37-7.03l-7.06-1.15c-3.28-.54-6.65-.12-9.7,1.18l-17.86,7.66-1.67-12.94,14.22-6.11c3.06-1.31,6.42-1.71,9.7-1.19l7.06,1.15c5.91.97,10.92,4.89,13.27,10.41l3.41,8.01Z"/>
          <path class="cls-2" d="M243.81,384.94c-.89,1.96-2.11,3.72-3.61,5.21s-3.27,2.71-5.23,3.58l-40.71,18.12-2.71-20.97,8.47,2.75c3.56,1.15,7.37,1.21,10.97.18l8.25-2.39c7.07-2.04,12.29-8.04,13.34-15.33l.46-3.18c.6-4.16-.22-8.4-2.32-12.03l-5.01-8.69c-.99-1.71-2.23-3.23-3.66-4.51h0c-1.01-.94-2.12-1.74-3.3-2.41-2.85-1.61-6.13-2.48-9.52-2.43-4.3.06-8.45,1.6-11.75,4.36l-10.43,8.73-1.65-12.77,17.86-7.66c3.04-1.32,6.41-1.72,9.69-1.19l7.06,1.15c4.62.76,8.68,3.31,11.37,7.03l.02.04c.74,1.02,1.37,2.15,1.87,3.34l10.67,25.05c1.91,4.49,1.86,9.57-.14,14.02Z"/>
        </g>
        <g>
          <line class="cls-3" x1="87.31" y1="299.25" x2="87.57" y2="301.23"/>
          <line class="cls-13" x1="88.07" y1="305.15" x2="107.04" y2="451.99"/>
          <line class="cls-3" x1="107.3" y1="453.95" x2="107.55" y2="455.93"/>
        </g>
        <rect class="cls-3" x="5.79" y="331.21" width="183.29" height="92.76" transform="translate(-47.58 15.6) rotate(-7.36)"/>
      </g>
      <g>
        <path class="cls-7" d="M636.99,301.38l-5.32-23.7c-1.01-4.49-2.74-8.78-5.14-12.71l-11.5-18.91c-4.43-7.29-10.62-13.36-17.98-17.67l-10.76-6.28c-2.52-1.47-5.31-2.4-8.21-2.72l-44.08-4.91-2.52.76-1.02.31h-.01c-.82.7-1.41,1.68-1.6,2.83l-1.8,10.98c-.17,1.05-.28,2.11-.31,3.17-.1,3.38.51,6.76,1.81,9.91l4.89,11.91,4.15,10.1c3.81,9.27,9.03,17.9,15.46,25.58l17.25,20.59c5.88,7.02,13.55,12.3,22.2,15.29l11.46,3.95c4.14,1.43,8.6,1.47,12.74.14.52-.16,1.03-.34,1.53-.55l10.63-4.38c1.31-.54,2.41-1.5,3.13-2.72l2.39-4.1c2.97-5.1,3.9-11.12,2.61-16.87ZM626,310.7l-6.99,5.31c-2.01,1.53-4.63,2-7.05,1.28l-1.79-.54-9.48-2.84-11.48-3.45c-1.55-.47-2.93-1.4-3.93-2.68l-13.26-16.84c-4.41-5.6-7.99-11.81-10.62-18.44l-4.41-11.1h0s-5.75-14.48-5.75-14.48c-.95-2.41-.67-5.14.77-7.29,1.12-1.67,2.81-2.84,4.72-3.3.6-.14,1.22-.22,1.85-.22h16.63c3.43,0,6.81.88,9.81,2.55l11.17,6.2c3.38,1.88,6.33,4.45,8.65,7.54l14.74,19.61c.57.76,1,1.63,1.27,2.56l7.96,27.66c.9,3.13-.22,6.49-2.81,8.47Z"/>
        <path class="cls-7" d="M626,310.7l-6.99,5.31c-2.01,1.53-4.63,2-7.05,1.28l-1.79-.54-9.48-2.84-1.76-16.17c-.48-4.42-1.99-8.66-4.41-12.39l-12.64-19.44c-1.83-2.82-4.96-4.51-8.32-4.51h-16.57s-5.75-14.48-5.75-14.48c-.95-2.41-.67-5.14.77-7.29,1.12-1.67,2.81-2.84,4.72-3.3.6-.14,1.22-.22,1.85-.22h16.63c3.43,0,6.81.88,9.81,2.55l11.17,6.2c3.38,1.88,6.33,4.45,8.65,7.54l14.74,19.61c.57.76,1,1.63,1.27,2.56l7.96,27.66c.9,3.13-.22,6.49-2.81,8.47Z"/>
        <path class="cls-7" d="M534,214.48l-2.52.76-1.02.31c.21-.17.43-.33.67-.47.84-.49,1.84-.72,2.87-.6Z"/>
        <path class="cls-1" d="M618.47,333.95l-11.14,4.88c-7.83,3.22-16.39,4.25-24.77,2.97l-5.47-.83c-13.58-2.07-26.04-8.76-35.28-18.93l-16.55-18.21c-5.71-6.29-10.29-13.53-13.52-21.39l-12.51-30.44.19-1.13c.77.64,1.52,1.31,2.23,2.02l15.97,15.97,4.47-2.8.16.62c3.52,10.21,10.81,19.73,17.65,28.09l20.31,24.85c5.4,6.61,12.41,11.7,20.36,14.79l7.27,2.83c3.93,1.53,8.18,2.08,12.37,1.6.41-.05.82-.14,1.22-.25l17.04-4.64Z"/>
        <path class="cls-1" d="M440.85,173.62l-32.76,32.12-216.04-117.58c-2.74-1.49-4.7-4.11-5.34-7.17l-1.36-6.4c-.18-.85-.08-1.72.25-2.48.36-.81.98-1.51,1.8-1.96l.14-.08c.52-.28,1.06-.5,1.61-.67.03-.01.05-.01.05-.01,1.62-.47,3.35-.44,4.97.11l69.93,23.79c4.61,1.56,9.14,3.37,13.57,5.4l163.18,74.93Z"/>
        <path class="cls-7" d="M472.55,214.01c-.15,3.23-1.1,5.69-2.85,6.86-.57,1.03-1.34,1.8-2.31,2.24-4.94,2.27-13.1-4.9-18.21-16.02-5.1-11.11-5.22-21.97-.28-24.24.85-.39,1.78-.51,2.77-.38,2.83-1.04,6.66.93,10.31,4.89,1.24,1.02,2.51,2.39,3.73,4.02,0,.01,0,.02,0,.02,1.45,1.94,2.83,4.25,4.02,6.83.54,1.19,1.02,2.38,1.42,3.54,0,.01,0,.02.02.03,1.69,4.85,2.17,9.32,1.37,12.21Z"/>
        <path class="cls-7" d="M531.13,215.08c-.24.14-.46.3-.67.47h-.01s-6.97,2.12-6.97,2.12c-3.38,1.03-5.99,3.75-6.86,7.18l-.57,2.23c-.35,1.38-.61,2.78-.76,4.18-.53,4.59-.03,9.27,1.49,13.67l3.4,13.48-10.52-10.52c-2.36-2.35-5.47-4-8.91-5.08-5.85-1.86-12.65-2.12-18.29-1.56l-3.63.37c-2.65.26-5.33-.28-7.67-1.55l-6.25-3.4,17.68-16.86c2.48-2.37,3.75-5.74,3.45-9.16l-1.48-16.95,46.57,21.38Z"/>
        <path class="cls-7" d="M621.73,332.1c-.74.83-1.7,1.43-2.77,1.72l-17.52,4.77c-.4.11-.81.2-1.22.25-4.19.48-8.44-.07-12.37-1.6l-7.27-2.83c-7.95-3.09-14.96-8.18-20.36-14.79l-20.31-24.85c-6.84-8.36-14.13-17.88-17.65-28.09l-.16-.62,3.53-2.2-5.45-5.45-3.4-13.48c-1.52-4.4-2.02-9.08-1.49-13.67.15-1.4.41-2.8.76-4.18l.57-2.23c.87-3.43,3.48-6.15,6.86-7.18l6.97-2.11c-.82.69-1.41,1.67-1.6,2.82l-1.8,10.98c-.17,1.05-.28,2.11-.31,3.17-.1,3.38.51,6.76,1.81,9.91l4.89,11.91,4.15,10.1c3.81,9.27,9.03,17.9,15.46,25.58l17.25,20.59c5.88,7.02,13.55,12.3,22.2,15.29l11.46,3.95c4.14,1.43,8.6,1.47,12.74.14l10.76-4.35-5.73,6.45Z"/>
        <path class="cls-7" d="M531.48,215.24l-1.02.31c.21-.17.43-.33.67-.47l.35.16Z"/>
        <path class="cls-7" d="M188.27,69.69c-.25.11-.54.24-.83.38.29-.16.58-.29.83-.38Z"/>
        <path class="cls-4" d="M408.09,205.74l-3.75,3.68-217.29-118.26c-2.74-1.49-4.7-4.11-5.34-7.17l-1.36-6.4c-.37-1.77,1.55-4.56,3.14-5.43,0,0,2.17-1.24,3.89-2.06-1.3.73-2.7,2.1-2.03,4.49l1.36,6.4c.64,3.06,2.6,5.68,5.34,7.17l216.04,117.58Z"/>
        <path class="cls-4" d="M525.63,263.86l-3.53,2.2-4.47,2.8-15.97-15.97c-.71-.71-1.46-1.38-2.23-2.02-6.13-5-14.02-7.41-21.97-6.62l-3.63.37c-2.65.26-5.33-.28-7.67-1.55l-5.06-2.76,3.81-3.64,6.25,3.4c2.34,1.27,5.02,1.81,7.67,1.55l3.63-.37c5.64-.56,12.44-.3,18.29,1.56,3.44,1.08,6.55,2.73,8.91,5.08l10.52,10.52,5.45,5.45Z"/>
        <path class="cls-7" d="M287.9,350.35c-.25-.14-.49-.29-.73-.45-.95-.66-1.77-1.53-2.37-2.61.48.82,1.52,2.16,3.1,3.06Z"/>
        <path class="cls-7" d="M472.55,214.01c-.15,3.23-1.1,5.69-2.85,6.86-.57,1.03-1.34,1.8-2.31,2.24-4.94,2.27-13.1-4.9-18.21-16.02-5.1-11.11-5.22-21.97-.28-24.24.85-.39,1.78-.51,2.77-.38,2.83-1.04,6.66.93,10.31,4.89,1.24,1.02,2.51,2.39,3.73,4.02,0,.01,0,.02,0,.02,1.45,1.94,2.83,4.25,4.02,6.83.54,1.19,1.02,2.38,1.42,3.54,0,.01,0,.02.02.03,1.69,4.85,2.17,9.32,1.37,12.21Z"/>
        <path class="cls-7" d="M287.9,350.35c-.25-.14-.49-.29-.73-.45-.95-.66-1.77-1.53-2.37-2.61.48.82,1.52,2.16,3.1,3.06Z"/>
        <path class="cls-1" d="M451.36,79.37l-3.39,1.31v45.98l-22.62-54.92-5.41-30.54v-13.72c0-3.85,1.77-7.48,4.8-9.85l10.68-8.35,2.5,29.15c.77,9.08,3.08,17.96,6.83,26.27l6.61,14.67Z"/>
        <path class="cls-7" d="M486.52,129.76l22.68-27.07-22.04,20.32c-1.57,1.44-3.62,2.24-5.75,2.24h0c-2.9,0-5.6-1.48-7.16-3.93l-4.94-7.79c-2.57-4.06-4.69-8.39-6.3-12.91l-7.55-21.22c-.1-.27-.5-.2-.5.09v49.09l.25,1.56,3.62,22.91c.93,5.92-1.08,11.93-5.4,16.1l-7.22,6.95-8.41,8.11,1.86,7.79c.6,2.54.4,5.2-.58,7.62l-2.71,6.71c-.63,1.56-1.57,2.98-2.77,4.18l-5.91,5.91-3.71,3.71-131.04,131.09c.82-.13,1.64-.4,2.42-.82l107.23-57.05c4.34-2.31,8.35-5.2,11.91-8.59l46.59-44.44,3.81-3.64,17.68-16.86c2.48-2.37,3.75-5.74,3.45-9.16l-1.48-16.95-4.15-47.54c-.29-3.32.45-6.64,2.12-9.52l3.99-6.88ZM472.55,214.01c-.15,3.23-1.1,5.69-2.85,6.86-.57,1.03-1.34,1.8-2.31,2.24-4.94,2.27-13.1-4.9-18.21-16.02-5.1-11.11-5.22-21.97-.28-24.24.85-.39,1.78-.51,2.77-.38,2.83-1.04,6.66.93,10.31,4.89,1.24,1.02,2.51,2.39,3.73,4.02,0,.01,0,.02,0,.02,1.45,1.94,2.83,4.25,4.02,6.83.54,1.19,1.02,2.38,1.42,3.54,0,.01,0,.02.02.03,1.69,4.85,2.17,9.32,1.37,12.21Z"/>
        <path class="cls-7" d="M517.52,60.65l-22.35-31.22c-2.15-3.01-4.48-5.88-6.98-8.59l-10.57-11.48c-2.91-3.16-6.52-5.59-10.54-7.1l-3.09-1.17c-.46-.17-.93-.27-1.42-.27-.47-.02-.95.05-1.41.2-5.6,1.79-9.39,6.99-9.39,12.87v6.07c0,2.59.22,5.16.67,7.71l2.43,13.71c1.54,8.64,3.99,17.09,7.34,25.21l7.45,18.08,9.75,23.68c.2.49.45.95.75,1.37,1.32,1.89,3.49,3.05,5.85,3.05,2.1,0,4.12-.77,5.68-2.17l11.73-10.54,12.48-11.21c1.09-.97,2.04-2.06,2.86-3.25h0c1.59-2.34,2.62-5.02,3-7.85v-.06c.81-6.01-.71-12.11-4.24-17.04ZM509.81,81.91l-5.42,5.42c-2.41,2.41-5.81,3.55-9.19,3.07l-4.55-.64-3.3-.47c-3.75-.53-7.02-2.79-8.84-6.1l-2.63-4.8c-4.03-7.33-6.92-15.24-8.57-23.44l-.74-3.67-5.4-26.72-.92-4.55c-.1-.51-.15-1.02-.15-1.53,0-1.74.58-3.45,1.69-4.83l.03-.03c1.48-1.84,3.91-2.62,6.19-1.96l2.81.8c1.29.37,2.46,1.1,3.36,2.11l15.57,17.38,19.87,27.65c1.34,1.87,2.37,3.93,3.07,6.09.7,2.16,1.06,4.43,1.06,6.73,0,3.56-1.42,6.97-3.94,9.49Z"/>
        <path class="cls-6" d="M513.75,72.42c0,3.56-1.42,6.97-3.94,9.49l-5.42,5.42c-2.41,2.41-5.81,3.55-9.19,3.07l-4.55-.64-3.3-.47c-3.75-.53-7.02-2.79-8.84-6.1l-2.63-4.8c-4.03-7.33-6.92-15.24-8.57-23.44l-.74-3.67-5.4-26.72-.92-4.55c-.1-.51-.15-1.02-.15-1.53,0-1.74.58-3.45,1.69-4.83l.03-.03c1.48-1.84,3.91-2.62,6.19-1.96l2.81.8c1.29.37,2.46,1.1,3.36,2.11l15.57,17.38,19.87,27.65c1.34,1.87,2.37,3.93,3.07,6.09.7,2.16,1.06,4.43,1.06,6.73Z"/>
        <path class="cls-4" d="M453.44,169.14l-7.22,6.95-8.41,8.11-25.02,24.1-3.79,3.66-126.48,121.86c-1.85,1.79-2.31,4.58-1.13,6.87l3.27,6.35c.04.08.09.16.14.25.6,1.08,1.42,1.95,2.37,2.61.24.16.48.31.73.45.94.54,2.07.94,3.38.97-8.85,2.57-13.22-10.65-13.22-10.65-1.18-2.29-.39-7.06,1.46-8.85l124.82-122.4,3.75-3.68,32.76-32.12,5.59-5.48c4.32-4.17,6.33-10.18,5.4-16.1l-3.87-24.47v-46.89l3.39-1.31,3.61-1.39v50.59l.25,1.56,3.62,22.91c.93,5.92-1.08,11.93-5.4,16.1Z"/>
        <path class="cls-7" d="M518.76,85.6l-3.66,11.65-5.9,5.44-22.04,20.32c-1.57,1.44-3.62,2.24-5.75,2.24h0c-2.9,0-5.6-1.48-7.16-3.93l-4.94-7.79c-2.57-4.06-4.69-8.39-6.3-12.91l-8.05-22.64h0l-3.61,1.39-6.61-14.67c-3.75-8.31-6.06-17.19-6.83-26.27l-2.5-29.15,8.68-6.79,18.49-1.93-.02.26c-.47-.02-.95.05-1.41.2-5.6,1.79-9.39,6.99-9.39,12.87v6.07c0,2.59.22,5.16.67,7.71l2.43,13.71c1.54,8.64,3.99,17.09,7.34,25.21l7.45,18.08,9.75,23.68c.2.49.45.95.75,1.37,1.32,1.89,3.49,3.05,5.85,3.05,2.1,0,4.12-.77,5.68-2.17l11.73-10.54,12.48-11.21c1.09-.97,2.04-2.06,2.86-3.25Z"/>
        <line class="cls-7" x1="518.77" y1="85.55" x2="518.76" y2="85.59"/>
        <path class="cls-10" d="M439.09,199.61l-2.71,6.71c-.63,1.56-1.57,2.98-2.77,4.18l-5.91,5.91-3.71,3.71-131.04,131.09c-1.75.29-3.52-.03-5.05-.86-1.58-.9-2.62-2.24-3.1-3.06-.05-.09-.1-.17-.14-.25l-3.27-6.35c-1.18-2.29-.72-5.08,1.13-6.87l126.48-121.86,3.79-3.66,25.02-24.1,1.86,7.79c.6,2.54.4,5.2-.58,7.62Z"/>
        <g>
          <path class="cls-12" d="M168.24,1.64c-.24,10.98-.82,104.63,45.61,228.23,42.48,113.09,101.08,161.22,108.85,167.24"/>
          <polygon class="cls-15" points="164.11 4.89 164.83 5.59 168.25 2.03 171.55 5.69 172.29 5.02 168.27 .56 164.11 4.89"/>
          <polygon class="cls-15" points="317.58 398.26 317.5 397.26 322.41 396.86 321.65 391.99 322.64 391.83 323.56 397.77 317.58 398.26"/>
        </g>
        <g>
          <path class="cls-6" d="M517.97,184.49c1.52,5.9,1,10.76-1.65,11.98-3.54,1.63-9.55-3.88-13.42-12.29s-4.13-16.56-.58-18.19c1.77-.81,4.16.15,6.59,2.38"/>
          <polygon class="cls-15" points="514.66 188.63 515.52 189.14 518 184.87 522.07 187.66 522.64 186.83 517.68 183.44 514.66 188.63"/>
        </g>
        <path class="cls-7" d="M472.55,214.01c-.33,1.2-.87,2.13-1.64,2.71-.17.13-.36.24-.57.33-3.67,1.69-9.88-4.01-13.89-12.72-4-8.71-4.26-17.13-.6-18.82.43-.19.88-.29,1.37-.3,1.42-.01,3.06.76,4.76,2.15,1.24,1.02,2.51,2.39,3.73,4.02-.62-.71-1.22-1.28-1.77-1.67-.8-.56-1.51-.76-2.05-.51-.16.08-.32.2-.44.35-1.16,1.44-.42,6.09,1.86,11.06,2.28,4.96,5.33,8.55,7.18,8.61.19.01.38-.03.54-.1.52-.24.82-.84.94-1.72.17-1.34-.1-3.33-.79-5.6,1.69,4.85,2.17,9.32,1.37,12.21Z"/>
        <path class="cls-7" d="M469.7,220.87c-.57,1.03-1.34,1.8-2.31,2.24-4.94,2.27-13.1-4.9-18.21-16.02-5.1-11.11-5.22-21.97-.28-24.24.85-.39,1.78-.51,2.77-.38-.1.03-.21.08-.31.13-4.74,2.18-4.62,12.59.27,23.25,4.9,10.66,12.72,17.54,17.47,15.36.21-.1.41-.21.6-.34Z"/>
        <path class="cls-7" d="M471.97,207.4c-.12.88-.42,1.48-.94,1.72-.16.07-.35.11-.54.1-1.85-.06-4.9-3.65-7.18-8.61-2.28-4.97-3.02-9.62-1.86-11.06.12-.15.28-.27.44-.35.54-.25,1.25-.05,2.05.51.55.39,1.15.96,1.77,1.67,0,.01,0,.02,0,.02,1.45,1.94,2.83,4.25,4.02,6.83.54,1.19,1.02,2.38,1.42,3.54,0,.01,0,.02.02.03.69,2.27.96,4.26.79,5.6Z"/>
        <path class="cls-7" d="M472.55,214.01c-.15,3.23-1.1,5.69-2.85,6.86-.19.13-.39.24-.6.34-4.75,2.18-12.57-4.7-17.47-15.36-4.89-10.66-5.01-21.07-.27-23.25.1-.05.21-.1.31-.13,2.83-1.04,6.66.93,10.31,4.89-1.7-1.39-3.34-2.16-4.76-2.15-.49.01-.94.11-1.37.3-3.66,1.69-3.4,10.11.6,18.82,4.01,8.71,10.22,14.41,13.89,12.72.21-.09.4-.2.57-.33.77-.58,1.31-1.51,1.64-2.71Z"/>
        <line class="cls-8" x1="435.36" y1="211.83" x2="518.18" y2="177.12"/>
        <g>
          <path d="M391.89,159.58c0-1.53,0-3.08,0-4.61h4.61c0,1.53,0,3.08,0,4.61-1.53,0-3.07,0-4.61,0Z"/>
          <path d="M382.68,159.58c0,1.45,0,2.92,0,4.37,1.53,0,3.07-.01,4.61,0,0,1.53,0,3.08,0,4.61h-4.61c0,1.53,0,3.08,0,4.61-1.45,0-2.91,0-4.36,0,0-1.53,0-3.08,0-4.61-1.53,0-3.07.01-4.61,0,0-1.53,0-3.08,0-4.61,1.53,0,3.07,0,4.61,0,0-1.45-.01-2.92,0-4.37,1.45,0,2.91,0,4.36,0Z"/>
          <path d="M382.68,154.97c1.53,0,3.07,0,4.61,0,0,1.53-.01,3.08,0,4.61-1.53,0-3.07,0-4.61,0,0-1.53,0-3.08,0-4.61Z"/>
          <path d="M391.89,159.58c0,1.45,0,2.91,0,4.37-1.53,0-3.07,0-4.61,0,0-1.45,0-2.91,0-4.37,1.53,0,3.07,0,4.61,0Z"/>
          <path d="M378.31,154.97c0-1.53,0-3.08,0-4.61h4.36c0,1.53,0,3.08,0,4.61-1.45,0-2.91,0-4.36,0Z"/>
          <path d="M396.49,159.58c1.45,0,2.91,0,4.36,0,0,1.45-.01,2.92,0,4.37-1.45,0-2.91,0-4.36,0,0-1.45,0-2.91,0-4.37Z"/>
          <path d="M364.5,150.36c0,1.53,0,3.08,0,4.61-1.45,0-2.91,0-4.36,0,0-1.53,0-3.08,0-4.61,1.45,0,2.91,0,4.36,0Z"/>
          <path d="M391.89,186.74c0,1.53,0,3.08,0,4.61h-4.61c0-1.53,0-3.08,0-4.61,1.53,0,3.07,0,4.61,0Z"/>
          <path d="M396.49,163.94c0,1.53,0,3.08,0,4.61-1.53,0-3.07,0-4.61,0,0-1.53.01-3.08,0-4.61,1.53,0,3.07,0,4.61,0Z"/>
          <path d="M391.89,182.13c1.53,0,3.07,0,4.61,0v4.61c-1.53,0-3.07,0-4.61,0,0-1.53,0-3.08,0-4.61Z"/>
          <path d="M400.86,163.94c1.53,0,3.07,0,4.61,0v4.61c-1.53,0-3.07,0-4.61,0,0-1.53,0-3.08,0-4.61Z"/>
          <path d="M346.32,163.94c-2.99.02-5.98-.01-8.97,0v-4.37h-9.21v-4.61h-4.36v-4.61h-9.21v-4.61h-8.97v-4.37h-9.21v-4.61h-8.97v-4.61h-9.21v-4.61h-4.61v-4.37h-8.97v-4.61h-9.21v-4.61h-8.97v-4.61h-9.21v-4.37h-8.97v-4.61h-4.61v-4.61h-8.97v-4.61h-9.21v-4.37h-8.97v-4.61h-4.61v-4.61h18.18v4.61h13.57v4.61h13.57v4.37h13.82v4.61h13.57v4.61h8.97v4.61h13.82v4.37h8.97v4.61h9.21v4.61h8.97v4.61h9.21v4.37h8.97c0,1.53,0,3.08,0,4.61h-4.61v4.61h4.61v-4.61c.43,0,4.61-.23,4.61,0v4.61h4.61v-4.61h4.36v4.61h9.21v8.97c1.53,0,3.07,0,4.61,0-.01,1.53,0,3.08,0,4.61-1.53,0-3.07,0-4.61,0v4.61c1.53,0,3.07,0,4.61,0,0,1.53.01,3.08,0,4.61-1.53,0-3.07,0-4.61,0v4.37h4.61c0-1.45,0-2.91,0-4.37,1.45,0,2.91,0,4.36,0,0,1.45,0,2.92,0,4.37,1.53,0,3.07-.01,4.61,0,0,1.53,0,3.08,0,4.61-1.53,0-3.07,0-4.61,0,0,1.53,0,3.08,0,4.61-1.45,0-2.91,0-4.36,0v-4.61h-13.82c0-1.53,0-3.08,0-4.61,1.53,0,3.07,0,4.61,0v-4.37h-4.61c0,1.45,0,2.91,0,4.37ZM341.95,141.38h-4.61v4.37h4.61v-4.37ZM350.92,141.38h-4.61v4.37h4.61v-4.37ZM341.95,150.36h-4.61v4.61h4.61v-4.61ZM350.92,150.36h-4.61v4.61h4.61v-4.61Z"/>
          <path d="M364.5,145.75c3.07.01,6.14,0,9.21,0v9.22c1.53,0,3.07,0,4.61,0,0,1.53,0,3.08,0,4.61-1.53,0-3.07,0-4.61,0,0,1.45.01,2.92,0,4.37-1.53,0-3.07,0-4.61,0,0-1.45,0-2.92,0-4.37-1.53,0-3.07.01-4.61,0,0-1.53,0-3.08,0-4.61,1.53,0,3.07,0,4.61,0v-4.61c-1.53,0-3.07,0-4.61,0,0-1.53.01-3.08,0-4.61Z"/>
          <path d="M373.71,168.55c0,1.53,0,3.08,0,4.61-1.53,0-3.07,0-4.61,0,0-1.53,0-3.08,0-4.61,1.53,0,3.07,0,4.61,0Z"/>
          <path d="M360.13,145.75c0-1.45,0-2.91,0-4.37h4.36c0,1.45,0,2.91,0,4.37-1.45,0-2.91,0-4.36,0Z"/>
          <path d="M400.86,168.55c0,1.53,0,3.08,0,4.61,1.53,0,3.07,0,4.61,0,0,1.53-.01,3.08,0,4.61,1.53,0,3.07,0,4.61,0,0-1.53,0-3.08,0-4.61h4.61v4.61c-1.53,0-3.07,0-4.61,0,0,1.45,0,2.91,0,4.37,1.53,0,3.07,0,4.61,0v4.61h-4.61c0-1.53,0-3.08,0-4.61-1.53,0-3.07,0-4.61,0,0,1.53,0,3.08,0,4.61h-4.61v-4.61c1.53,0,3.07,0,4.61,0,0-1.45,0-2.91,0-4.37-1.53,0-3.07,0-4.61,0,0-1.53.01-3.08,0-4.61-1.45,0-2.91,0-4.36,0,0-1.53,0-3.08,0-4.61,1.45,0,2.91,0,4.36,0Z"/>
          <path d="M369.1,173.16c0,1.53,0,3.08,0,4.61h-4.61v-4.61c1.53.01,3.07,0,4.61,0Z"/>
          <path d="M378.31,173.16c0,1.53,0,3.08,0,4.61-1.53,0-3.07,0-4.61,0,0-1.53.01-3.08,0-4.61,1.53,0,3.07,0,4.61,0Z"/>
          <path d="M387.28,182.13c0,1.53,0,3.08,0,4.61-1.53,0-3.07,0-4.61,0,0-1.53.01-3.08,0-4.61,1.53,0,3.07,0,4.61,0Z"/>
          <path d="M382.68,173.16c1.53,0,3.07,0,4.61,0,0,1.53-.01,3.08,0,4.61-1.53,0-3.07,0-4.61,0,0-1.53,0-3.08,0-4.61Z"/>
          <path d="M396.49,173.16c0,1.53,0,3.08,0,4.61-1.53,0-3.07-.01-4.61,0,0-1.53,0-3.08,0-4.61,1.53,0,3.07.01,4.61,0Z"/>
          <path d="M391.89,177.77c0,1.45,0,2.91,0,4.37-1.53,0-3.07,0-4.61,0,0-1.45,0-2.91,0-4.37,1.53,0,3.07,0,4.61,0Z"/>
          <path d="M382.68,177.77c0,1.45,0,2.91,0,4.37-1.45,0-2.91,0-4.36,0,0-1.45.01-2.92,0-4.37,1.45,0,2.91,0,4.36,0Z"/>
          <rect x="410.07" y="191.35" width="4.61" height="4.61"/>
          <rect x="400.86" y="191.35" width="4.61" height="4.61"/>
          <rect x="419.04" y="182.13" width="4.61" height="4.61"/>
          <rect x="419.04" y="173.16" width="4.61" height="4.61"/>
          <rect x="410.07" y="163.94" width="4.61" height="4.61"/>
        </g>
      </g>
    </g>
  </g>
</svg>